<?xml version="1.0" encoding="UTF-8"?>
<svg id="Layer_1" xmlns="http://www.w3.org/2000/svg" version="1.1" viewBox="0 0 1190.55 841.89">
  <!-- Generator: Adobe Illustrator 29.0.1, SVG Export Plug-In . SVG Version: 2.1.0 Build 192)  -->
  <defs>
    <style>
      .st0 {
        fill: #fff;
      }
    </style>
  </defs>
  <path class="st0" d="M54.69,64.05c1.51-3.24.22-4.97-3.89-5.18v-1.01h18.15v.86c-3.38.07-4.25,2.59-2.45,7.56l8.79,29.67.07.43,3.53,11.88h-11.95c-.43-4.54-.79-5.83-2.23-12.02l-1.01-4.03c-5.83,13.11-11.88,19.23-15.99,16.71-4.68-2.88-4.25-11.59-2.16-21.17,1.66-7.34,4.9-15.77,9.14-23.69ZM46.7,88.89c-1.73,8.14,1.94,12.17,5.98,12.75,3.24.5,5.9-1.01,10.51-11.02l-7.56-25.78c-4.25,8.06-7.27,16.2-8.93,24.05Z"/>
  <path class="st0" d="M88.67,76.36c1.01-2.16.14-3.24-2.52-3.38v-.72h13.75v.72c-2.23.07-2.81,1.58-1.58,4.82l6.55,26.28c.5,1.66,1.01,3.17,1.44,4.18h-10.01c.22-3.02-.07-3.82-1.01-7.92l-.65-2.66c-3.82,8.64-7.85,12.67-10.58,11.02-3.02-1.87-2.66-10.37-1.3-16.71,1.08-4.82,3.17-10.44,5.9-15.63ZM83.78,92.71c-1.15,5.4.94,10.8,3.6,11.16,2.16.36,3.74-1.22,6.77-7.85l-4.54-18.79c-2.81,5.33-4.75,10.37-5.83,15.48Z"/>
  <path class="st0" d="M161.76,58.58c-2.45,3.82-3.96,8.71-5.26,13.68h-.72c-1.66-6.62-4.9-10.23-8.14-11.95-2.02-1.01-4.61-1.22-6.84-1.22v21.1c11.52.14,21.24,2.88,21.24,23.76v4.32h-32.69c.86-7.34.72-12.75.72-16.85v-17.43c0-4.1-.07-7.34-.72-16.13h32.4v.72ZM150.74,107.04v-4.1c0-15.62-2.16-20.45-9.94-21.39v25.49h9.94Z"/>
  <path class="st0" d="M194.01,108.26h-25.49c.22-3.6.43-7.27.43-10.8v-14.4c0-3.53-.22-7.2-.43-10.8h24.12v.72c-1.66,2.52-2.59,5.47-3.38,8.78h-.72c-1.08-4.39-3.31-6.34-5.62-7.49-1.37-.65-3.24-.79-4.82-.79v16.27h.36c6.48.29,15.48,2.02,15.55,18.51ZM184.94,107.04c-.14-13.75-2.3-15.41-6.84-15.99v15.99h6.84Z"/>
  <path class="st0" d="M219.21,91.41v-17.43c0-4.1-.07-7.34-.72-16.13h30.75v3.6c0,12.75-5.83,17.71-13.9,19.3,8.28,1.44,14.4,6.62,14.4,23.19v4.32h-31.25c.86-7.34.72-12.75.72-16.85ZM238.43,62.32v-3.24h-8.5v20.95c7.56-1.3,8.5-6.41,8.5-17.71ZM238.43,107.04v-4.1c0-14.62-1.87-19.8-8.5-21.17v25.27h8.5Z"/>
  <path class="st0" d="M256.21,72.26h23.69v3.46c0,8.21-3.1,12.89-9.29,14.55,5.47,1.22,11.02,5.11,11.09,18h-25.49c.22-3.6.43-7.27.43-10.8v-14.4c0-3.53-.22-7.2-.43-10.8ZM271.91,75.71v-2.23h-6.12v16.2c5.62-.72,6.12-5.4,6.12-13.97ZM272.63,107.04c-.14-13.75-2.3-15.41-6.84-15.99v15.99h6.84Z"/>
  <path class="st0" d="M333.83,57.86v1.22c-1.58,6.26-2.16,11.59-2.52,15.91h-1.08c-1.58-9.86-5.76-15.19-12.53-15.84v32.98c0,4.1.07,7.34.72,16.13h-12.24c.65-8.78.72-12.02.72-16.13v-22.61c0-3.24-.14-7.06-.72-11.67h27.65Z"/>
  <path class="st0" d="M353.27,76.58c-2.3-3.1-4.25-3.1-5.33-3.1h-.58v24.77c0,3.31.22,6.7.43,10.01h-9.29c.22-3.31.43-6.7.43-10.01v-15.99c0-3.31-.22-6.7-.43-10.01h20.38v1.22l-1.58,13.1h-.72c-1.08-4.25-1.58-7.63-3.31-10.01Z"/>
  <path class="st0" d="M403.81,45.69h.79c.29,3.31.65,7.34,1.8,12.17v.94h-13.32v33.34c0,4.1.07,7.34.72,16.13h-12.24c.65-8.78.72-12.02.72-16.13v-22.61c0-3.24-.14-7.06-.72-11.67h10.01c5.47,0,11.02-5.4,12.24-12.17Z"/>
  <path class="st0" d="M411.08,72.26h8.78c5.69,0,7.85-2.38,9.29-8.06h.72l1.58,8.57v.72h-11.52v24.77c0,3.31.22,6.7.43,10.01h-9.29c.22-3.31.43-6.7.43-10.01v-15.99c0-3.31-.22-6.7-.43-10.01Z"/>
  <path class="st0" d="M450.18,107.18h8.06l7.42-40.54c1.22-5.4-.86-8.14-6.12-8.14v-.65h24.7v.65c-4.39,0-5.62,2.74-5.04,8.14l4.1,40.54h7.63v1.08l-9.07,17.28h-.72v-17.28h-21.67l.07,17.28h-.72l-8.64-17.28v-1.08ZM470.77,106.46l-3.53-41.12h-.07l-7.56,41.12v.72h11.16v-.72Z"/>
  <path class="st0" d="M492.01,107.04h5.98l5.11-29.45c.43-2.3-.5-3.67-3.6-4.61v-.72h17.21v.72c-3.1.94-4.32,2.3-4.03,4.61l3.82,29.45h5.76v1.22l-6.34,14.98h-.72l-.07-14.98h-16.35v15.05h-.72l-6.05-15.05v-1.22ZM504.9,77.59h-.58l-5.11,29.45h9l-3.31-29.45Z"/>
  <path class="st0" d="M560.63,56.78c11.16,0,16.35,9.72,16.42,15.84h-10.37c-.14-11.45-2.66-14.69-6.05-14.69-5.26,0-5.9,10.87-5.98,22.83h19.8v1.22h-19.8v1.15c0,11.31-.43,24.91,7.06,25.06,4.68.07,5.04-8.79,4.97-13.25h10.37c0,5.69-4.82,14.47-15.48,14.4-11.09-.07-18.43-10.51-18.43-26.21s7.34-26.35,17.5-26.35Z"/>
  <path class="st0" d="M595.69,71.18c5.98,0,10.01,3.1,10.73,8.42h-7.2c0-5.18-1.3-7.2-3.53-7.2-3.02,0-5.11.5-5.11,17.07v.14h12.74v1.22h-12.74c.14,17.43,3.02,17.43,5.11,17.28,2.52-.14,3.53-2.52,3.53-8.42h7.2c-.72,6.77-4.75,9.5-10.73,9.65-8.35.22-14.33-6.7-14.33-19.87,0-10.87,5.9-18.29,14.33-18.29Z"/>
  <path class="st0" d="M642.42,59.08v20.31c4.82-.36,7.7-2.09,9.65-9.29h1.08c-.65,4.32-.5,15.77,0,20.09h-1.08c-1.94-7.2-4.82-8.93-9.65-9.29v11.23c0,3.89.07,7.06.65,14.91h.72c7.63,0,12.31-5.33,14.04-15.91h1.08c.36,4.32.94,9.65,2.52,15.91v1.22h-30.53c.65-8.78.72-12.02.72-16.13v-22.61c0-3.24-.14-7.06-.72-11.67h30.53v1.22c-1.58,6.26-2.16,11.59-2.52,15.91h-1.08c-1.73-10.58-6.41-15.91-14.04-15.91h-1.37Z"/>
  <path class="st0" d="M677.12,73.48v15.91c2.81-.29,4.46-1.51,5.69-5.9h.72c-.43,2.88-.36,10.44,0,13.25h-.72c-1.22-4.32-2.88-5.54-5.69-5.83v16.13h.22c5.04,0,8.14-3.1,9.29-10.08h.72c.22,2.88.58,5.9,1.66,10.08v1.22h-21.46c.22-3.6.43-7.27.43-10.8v-14.4c0-3.53-.22-7.2-.43-10.8h21.46v1.22c-1.08,4.18-1.44,7.2-1.66,10.08h-.72c-1.15-6.98-4.25-10.08-9.29-10.08h-.22Z"/>
  <path class="st0" d="M723.49,96.6v-22.61c0-2.45,0-4.61-.22-7.92-4.39,1.22-8.57,4.97-10.51,13.32h-1.08c-.36-4.32-.94-7.49-2.52-13.75v-1.22h14.04c-.07-1.8-.22-3.96-.43-6.55h12.24c-.22,2.59-.36,4.75-.43,6.55h14.54v1.22c-1.58,6.26-2.16,9.43-2.52,13.75h-1.08c-2.02-8.64-6.48-12.39-11.02-13.39-.22,3.31-.22,5.47-.22,7.99v6.26c10.8.36,19.73,3.74,19.73,23.69v4.32h-31.25c.58-4.61.72-8.42.72-11.67ZM742.71,107.04v-4.1c0-14.62-1.87-19.8-8.42-21.1v25.2h8.42Z"/>
  <path class="st0" d="M769.13,80.83c-1.01.14-2.02.36-2.88.72-2.3,1.15-4.54,3.1-5.62,7.49h-.72c-.79-3.31-1.73-6.26-3.38-8.78v-.72h12.53c-.07-2.45-.22-4.9-.36-7.27h9.29c-.14,2.38-.29,4.82-.36,7.27h12.89v.72c-1.66,2.52-2.59,5.47-3.38,8.78h-.72c-1.08-4.39-3.31-6.34-5.62-7.49-.94-.43-2.09-.65-3.24-.72v8.93h1.22c6.48.29,15.48,2.02,15.55,18.51h-25.63c.22-3.31.43-6.7.43-10.01v-17.43ZM777.92,107.04h7.34c-.14-14.47-2.52-15.55-7.56-16.06h-.14v7.27c0,2.88.14,5.83.36,8.78Z"/>
  <path class="st0" d="M830.12,59.08v20.31c4.82-.36,7.7-2.09,9.65-9.29h1.08c-.65,4.32-.5,15.77,0,20.09h-1.08c-1.94-7.2-4.82-8.93-9.65-9.29v11.23c0,3.89.07,7.06.65,14.91h.72c7.63,0,12.31-5.33,14.04-15.91h1.08c.36,4.32.94,9.65,2.52,15.91v1.22h-30.53c.65-8.78.72-12.02.72-16.13v-22.61c0-3.24-.14-7.06-.72-11.67h30.53v1.22c-1.58,6.26-2.16,11.59-2.52,15.91h-1.08c-1.73-10.58-6.41-15.91-14.04-15.91h-1.37ZM827.67,47.63c2.3,0,4.03,1.87,4.03,3.89,0,2.38-1.73,4.32-4.03,4.32s-4.1-1.94-4.1-4.32c0-2.02,1.87-3.89,4.1-3.89ZM839.33,47.42c2.09,0,4.1,1.94,4.1,4.03,0,2.52-2.02,4.39-4.1,4.39-2.38,0-4.32-1.87-4.32-4.39,0-2.09,1.94-4.03,4.32-4.03Z"/>
  <path class="st0" d="M864.82,73.48v15.91c2.81-.29,4.46-1.51,5.69-5.9h.72c-.43,2.88-.36,10.44,0,13.25h-.72c-1.22-4.32-2.88-5.54-5.69-5.83v16.13h.22c5.04,0,8.14-3.1,9.29-10.08h.72c.22,2.88.58,5.9,1.66,10.08v1.22h-21.46c.22-3.6.43-7.27.43-10.8v-14.4c0-3.53-.22-7.2-.43-10.8h21.46v1.22c-1.08,4.18-1.44,7.2-1.66,10.08h-.72c-1.15-6.98-4.25-10.08-9.29-10.08h-.22ZM860,61.6c2.3,0,4.03,1.87,4.03,3.89,0,2.38-1.73,4.32-4.03,4.32s-4.1-1.94-4.1-4.32c0-2.02,1.87-3.89,4.1-3.89ZM871.66,61.38c2.09,0,4.1,1.94,4.1,4.03,0,2.52-2.02,4.39-4.1,4.39-2.38,0-4.32-1.87-4.32-4.39,0-2.09,1.94-4.03,4.32-4.03Z"/>
  <path class="st0" d="M916.59,96.6v-18.07c-7.71,2.09-8.14,17.5-8.14,24.41v5.33h-11.02v-4.32c0-15.63,5.4-24.7,18.5-26.64-4.32-13.46-12.31-12.6-13.54-2.23h-.72l-4.97-18.29c11.67,0,17.35,8.57,19.87,19.59v-2.38c0-4.1-.07-7.34-.72-16.13h12.24c-.65,8.78-.72,12.02-.72,16.13v2.38c2.52-11.02,8.21-19.59,19.87-19.59l-4.97,18.29h-.72c-1.22-10.37-9.22-11.23-13.54,2.23,13.1,1.94,18.5,11.02,18.5,26.64v4.32h-11.02v-5.33c0-6.91-.43-22.32-8.14-24.41v18.07c0,3.24.22,7.06.72,11.67h-12.24c.58-4.61.72-8.42.72-11.67Z"/>
  <path class="st0" d="M963.03,72.26h9.29c-.22,3.31-.43,6.7-.43,10.01v3.17c1.51-9.36,6.91-14.26,14.26-14.26l-3.24,11.81h-.72c-.79-6.84-7.42-7.42-9.43,4.75,7.34.94,11.59,4.39,13.18,11.02.58,2.3.94,6.19,1.58,9.5h-10.15c.29-2.59.36-3.74.29-5.62-.36-5.26-2.02-11.81-5.76-13.97v9.58c0,3.31.22,6.7.43,10.01h-9.29c.22-3.31.43-6.7.43-10.01v-9.58c-3.74,2.16-5.4,8.71-5.76,13.97-.07,1.87,0,3.02.29,5.62h-10.15c.65-3.31,1.01-7.2,1.58-9.5,1.58-6.62,5.83-10.08,13.18-11.02-2.02-12.17-8.64-11.59-9.43-4.75h-.72l-3.24-11.81c7.34,0,12.75,4.9,14.26,14.26v-3.17c0-3.31-.22-6.7-.43-10.01Z"/>
  <path class="st0" d="M1010.4,95.66h11.38c-.07,5.18.58,12.46,6.55,12.46,4.39,0,5.98-4.54,5.98-11.23,0-6.26-.43-13.39-7.2-15.12-5.83-1.51-17.21-1.44-17.28-11.52-.07-7.85,6.55-13.47,17.64-13.47,16.35,0,17.5,8.86,17.5,13.68h-11.67c-.14-10.01-3.17-12.53-5.83-12.53-2.3,0-5.54,1.73-5.76,7.56-.14,3.1-1.66,13.32,5.4,15.05,6.05,1.51,18.65,3.6,18.65,15.12,0,13.39-9.14,13.68-17.43,13.68-15.27,0-17.93-7.99-17.93-13.68Z"/>
  <path class="st0" d="M1050.14,99.98h7.78c0,5.54,1.73,8.14,4.1,8.14,3.31,0,4.03-3.31,3.96-8.35-.07-5.04.07-9-5.9-10.66-3.53-1.01-10.51-1.37-10.51-9.07,0-5.26,4.46-8.86,12.89-8.86s11.45,4.39,11.45,9.36h-7.92c0-5.18-1.51-8.06-3.53-8.06-3.02,0-4.39,3.24-4.39,8.35,0,4.03,2.23,7.2,6.98,8.57,3.6.94,9.94,3.24,10.08,11.09.07,5.83-4.1,8.86-13.11,8.86-9.5,0-11.88-3.6-11.88-9.36Z"/>
  <path class="st0" d="M70.89,202.8c0-5.4-3.53-8.14-10.58-8.14h-15.84v-.94l22.25-47.52.29-.72h-3.89c-7.63,0-12.31,5.33-14.04,15.91h-1.08c-.36-4.32-.94-9.65-2.52-15.91v-1.22h35.14c-3.46,4.75-5.62,9.94-6.77,12.31h-.07l-17.07,37.16c34.06.22,34.2,17.86,2.88,18.43v-1.01c7.56-.22,11.31-2.95,11.31-8.35Z"/>
  <path class="st0" d="M104.01,201c0-4.32-2.52-6.34-7.49-6.34h-12.03v-.86l15.84-33.91h-3.67c-1.08,0-3.02,0-5.33,3.1-1.73,2.38-2.23,5.76-3.31,10.01h-.72l-1.58-13.1v-1.22h23.55v.72l-15.91,34.06h.43c22.18.22,22.75,14.19,2.23,14.62v-.58c5.33-.22,7.99-2.3,7.99-6.48Z"/>
  <path class="st0" d="M134.32,183v-22.61c0-4.1-.07-7.34-1.08-16.13h12.89c-1.01,8.78-1.08,12.02-1.08,16.13v22.61c0,3.24.22,7.06,1.08,11.67h-12.89c.94-4.61,1.08-8.42,1.08-11.67Z"/>
  <path class="st0" d="M154.77,158.66h9.29c-.22,3.31-.43,6.7-.43,10.01v15.99c0,3.31.22,6.7.43,10.01h-9.29c.22-3.31.43-6.7.43-10.01v-15.99c0-3.31-.22-6.7-.43-10.01Z"/>
  <path class="st0" d="M202.15,182.49l9.94-29.09v-9.14h11.45c-.65,8.78-.72,12.02-.72,16.13v17.43c0,4.1-.14,9.5.72,16.85h-11.45v-37.73l-9.94,29.45v8.28h-11.45c.86-7.34.72-12.75.72-16.85v-17.43c0-4.1-.07-7.34-.72-16.13h11.45v38.24Z"/>
  <path class="st0" d="M232.17,158.66h9.58v27.07l6.98-21.24v-5.83h9.58c-.22,3.6-.43,7.27-.43,10.8v14.4c0,3.53.22,7.2.43,10.8h-9.58v-26.28l-6.98,21.31v4.97h-9.58c.22-3.6.43-7.27.43-10.8v-14.4c0-3.53-.22-7.2-.43-10.8Z"/>
  <path class="st0" d="M285.45,134.03c2.3,0,4.03,1.87,4.03,3.89,0,2.38-1.73,4.32-4.03,4.32s-4.1-1.94-4.1-4.32c0-2.02,1.87-3.89,4.1-3.89ZM285.95,183v-22.61c0-4.1-.07-7.34-1.08-16.13h12.89c-1.01,8.78-1.08,12.02-1.08,16.13v22.61c0,3.24.22,7.06,1.08,11.67h-12.89c.94-4.61,1.08-8.42,1.08-11.67ZM297.11,133.81c2.09,0,4.1,1.94,4.1,4.03,0,2.52-2.02,4.39-4.1,4.39-2.38,0-4.32-1.87-4.32-4.39,0-2.09,1.94-4.03,4.32-4.03Z"/>
  <path class="st0" d="M306.76,148.14c2.3,0,4.03,1.87,4.03,3.89,0,2.38-1.73,4.32-4.03,4.32s-4.1-1.94-4.1-4.32c0-2.02,1.87-3.89,4.1-3.89ZM307.98,158.66h9.29c-.22,3.31-.43,6.7-.43,10.01v15.99c0,3.31.22,6.7.43,10.01h-9.29c.22-3.31.43-6.7.43-10.01v-15.99c0-3.31-.22-6.7-.43-10.01ZM318.42,147.93c2.09,0,4.1,1.94,4.1,4.03,0,2.52-2.02,4.39-4.1,4.39-2.38,0-4.32-1.87-4.32-4.39,0-2.09,1.94-4.03,4.32-4.03Z"/>
  <path class="st0" d="M357.01,182.49l9.94-29.09v-9.14h11.45c-.65,8.78-.72,12.02-.72,16.13v17.43c0,4.1-.14,9.5.72,16.85h-11.45v-37.73l-9.94,29.45v8.28h-11.45c.86-7.34.72-12.75.72-16.85v-17.43c0-4.1-.07-7.34-.72-16.13h11.45v38.24ZM358.02,135.47c0,3.6,1.73,4.1,3.82,4.1,1.94,0,3.6-.79,3.6-4.39h5.54c-1.37,4.18-5.18,5.62-9.15,5.62-4.25,0-8.14-1.15-9.58-5.33h5.76Z"/>
  <path class="st0" d="M387.04,158.66h9.58v27.07l6.98-21.24v-5.83h9.58c-.22,3.6-.43,7.27-.43,10.8v14.4c0,3.53.22,7.2.43,10.8h-9.58v-26.28l-6.98,21.31v4.97h-9.58c.22-3.6.43-7.27.43-10.8v-14.4c0-3.53-.22-7.2-.43-10.8ZM396.18,152.03c0,3.6,1.73,4.1,3.82,4.1,1.94,0,3.6-.79,3.6-4.39h5.54c-1.37,4.18-5.18,5.62-9.14,5.62-4.25,0-8.14-1.15-9.58-5.33h5.76Z"/>
  <path class="st0" d="M440.53,183v-22.61c0-4.1-.07-7.34-.72-16.13h12.24c-.65,8.78-.72,12.02-.72,16.13v22.61c0,3.24.22,7.06.72,11.67h-12.24c.58-4.61.72-8.42.72-11.67ZM452.84,163.7c2.45-11.45,8.06-20.09,20.09-20.09l-4.97,17.86h-.72c-1.22-10.37-9.22-11.23-13.54,2.23,13.1,1.94,18.79,11.02,18.79,26.64v4.32h-11.31v-5.33c0-6.12-1.51-20.81-8.14-24.41l-.43-.22.22-1.01Z"/>
  <path class="st0" d="M477.61,158.66h9.29c-.22,3.31-.43,6.7-.43,10.01v15.99c0,3.31.22,6.7.43,10.01h-9.29c.22-3.31.43-6.7.43-10.01v-15.99c0-3.31-.22-6.7-.43-10.01ZM487.48,174.21c.94-10.94,6.62-16.63,14.55-16.63l-3.24,11.81h-.72c-.79-6.84-7.42-7.42-9.43,4.75,7.34.94,11.59,4.39,13.18,11.02.58,2.3.94,6.19,1.58,9.5h-10.15c.29-2.59.36-3.74.29-5.62-.36-5.33-2.02-11.95-5.9-14.04l-.29-.14.14-.65Z"/>
  <path class="st0" d="M528.87,144.9v-.65h24.91v.65c-4.39,0-5.83,2.81-4.97,8.14l4.68,29.31c.43,2.88,1.22,6.91,2.45,12.31h-13.83c.29-2.02-.29-7.7-.72-10.58l-4.68-33.05-5.69,29.45c-1.37,7.13-1.58,11.59,2.66,14.19h-10.15c1.87-2.38,4.54-6.19,5.76-12.46l5.69-29.16c1.22-5.4-.86-8.14-6.12-8.14ZM536.8,151.74h-.07.07Z"/>
  <path class="st0" d="M586.33,194.66h-9.43l-6.19-30.67-4.32,20.31c-1.15,5.26-.94,8.57,2.02,9.79v.58h-7.63v-.58c1.15-.22,3.02-3.46,4.39-9.79l4.61-21.17c.43-2.02-1.08-3.31-4.61-3.74v-.72h19.3v.72c-3.31.43-4.75,1.73-4.32,3.74l6.19,30.96v.58Z"/>
  <path class="st0" d="M625.5,179.11l-4.32-26.71v42.27h-11.45c.86-7.34.72-12.75.72-16.85v-17.43c0-4.1-.07-7.34-.72-16.13h11.45l4.9,29.67c2.66,15.99,12.31,16.35,14.91-.07l4.68-29.59h11.45c-.65,8.78-.72,12.02-.72,16.13v17.43c0,4.1-.14,9.5.72,16.85h-11.45v-42.27l-4.18,26.43c-3.6,22.75-12.38,22.54-15.99.29Z"/>
  <path class="st0" d="M677.19,183l-1.87-17.5v29.16h-9.58c.22-3.6.43-7.27.43-10.8v-14.4c0-3.53-.22-7.2-.43-10.8h9.58l2.16,19.51c1.58,14.26,8.78,14.26,10.37,0l2.16-19.51h9.58c-.22,3.6-.43,7.27-.43,10.8v14.4c0,3.53.22,7.2.43,10.8h-9.58v-29.16l-1.8,17.5c-1.66,16.2-9.29,16.2-11.02,0Z"/>
  <path class="st0" d="M737.67,164.13h9.94v-19.87h11.45c-.65,8.78-.72,12.02-.72,16.13v17.43c0,4.1-.14,9.5.72,16.85h-11.45v-29.31h-9.94v29.31h-11.45c.86-7.34.72-12.75.72-16.85v-17.43c0-4.1-.07-7.34-.72-16.13h11.45v19.87Z"/>
  <path class="st0" d="M767.7,158.66h9.58v14.76h6.98v-14.76h9.58c-.22,3.6-.43,7.27-.43,10.8v14.4c0,3.53.22,7.2.43,10.8h-9.58v-20.02h-6.98v20.02h-9.58c.22-3.6.43-7.27.43-10.8v-14.4c0-3.53-.22-7.2-.43-10.8Z"/>
  <path class="st0" d="M818.31,169.53c0-14.83,6.98-26.35,17.93-26.35s18,11.52,18,26.35-7.06,26.21-18,26.21-17.93-11.52-17.93-26.21ZM831.13,191.2c.86,2.23,2.52,3.38,5.11,3.38s4.39-1.15,5.18-3.38c.94-2.3,1.37-9.58,1.37-21.67s-.43-19.51-1.37-21.67c-.79-2.38-2.52-3.53-5.18-3.53s-4.25,1.15-5.11,3.53c-1.01,2.16-1.3,9.43-1.3,21.67s.29,19.37,1.3,21.67Z"/>
  <path class="st0" d="M887.43,176.15c0,11.66-5.62,19.59-14.47,19.59-8.21,0-14.4-7.92-14.4-19.66s6.19-18.51,14.4-18.51,14.47,7.27,14.47,18.58ZM869,191.42c.86,1.51,2.16,3.1,3.96,3.1,2.09,0,3.53-1.58,4.25-3.1.65-1.58,1.01-5.4,1.01-15.27s-.36-12.96-1.01-14.47c-.72-1.44-2.16-2.88-4.25-2.88-2.45,0-3.89,1.44-4.46,2.88-.5,1.51-.79,4.9-.79,14.26,0,10.01.43,13.9,1.3,15.48Z"/>
  <path class="st0" d="M943.95,160.39v17.43c0,4.1-.14,9.5.72,16.85h-11.45v-49.18h-9.86v49.18h-11.45c.86-7.34.72-12.75.72-16.85v-17.43c0-4.1-.07-7.34-.72-16.13h32.76c-.65,8.78-.72,12.02-.72,16.13Z"/>
  <path class="st0" d="M979.02,169.46v14.4c0,3.53.22,7.2.43,10.8h-9.58v-34.78h-6.98v34.78h-9.58c.22-3.6.43-7.27.43-10.8v-14.4c0-3.53-.22-7.2-.43-10.8h26.14c-.22,3.6-.43,7.27-.43,10.8Z"/>
  <path class="st0" d="M1018.18,194.66h-12.1c.65-5.54.72-9.94.72-13.54v-16.99c0-15.19,6.55-20.95,17.64-20.95,10.15,0,14.69,6.7,14.69,13.83,0,7.99-6.05,16.56-20.52,16.56h-5.26v-1.01h4.18l-.07,8.57c0,3.6.07,7.99.72,13.54ZM1017.46,157.65l.07,9.72v5.18c8.5-.65,11.23-8.35,11.23-15.55,0-6.55-1.3-12.75-5.54-12.75-3.67,0-5.76,3.6-5.76,13.39Z"/>
  <path class="st0" d="M1042.44,184.72v-9.36c0-10.51,4.03-17.79,12.53-17.79,6.05,0,11.74,2.66,11.74,9.72,0,6.41-7.27,10.01-15.84,10.01v7.42c0,3.31.22,6.7.43,10.01h-9.29c.22-3.31.43-6.7.43-10.01ZM1054.97,158.8c-2.66,0-4.1,2.45-4.1,8.5v9.07c3.31,0,8.35-1.01,8.35-9.15,0-6.05-1.51-8.42-4.25-8.42Z"/>
  <path class="st0" d="M1106.53,143.18c11.16,0,16.35,9.72,16.42,15.84h-10.37c-.14-11.45-2.66-14.69-6.05-14.69-5.62,0-5.98,12.31-5.98,25.2,0,11.31-.43,24.91,7.06,25.06,4.68.07,5.04-8.79,4.97-13.25h10.37c0,5.69-4.82,14.47-15.48,14.4-11.09-.07-18.43-10.51-18.43-26.21s7.34-26.35,17.5-26.35Z"/>
  <path class="st0" d="M1141.59,157.58c5.98,0,10.01,3.1,10.73,8.42h-7.2c0-5.18-1.3-7.2-3.53-7.2-3.02,0-5.11.5-5.11,17.07,0,18.79,2.95,18.79,5.11,18.65,2.52-.14,3.53-2.52,3.53-8.42h7.2c-.72,6.77-4.75,9.5-10.73,9.65-8.35.22-14.33-6.7-14.33-19.87,0-10.87,5.9-18.29,14.33-18.29Z"/>
  <path class="st0" d="M55.05,269.4v-22.61c0-3.89-.07-7.06-.65-14.91-2.3.43-6.19,8.06-7.63,21.6h-.65c-1.37-13.9-2.59-18.87-3.89-22.11v-.72h36.22v.72c-1.3,3.24-2.52,8.21-3.89,22.11h-.65c-1.44-13.1-5.11-20.74-7.42-21.53-.58,7.85-.65,10.95-.65,14.83v22.61c0,3.24.22,7.06.72,11.67h-12.24c.58-4.61.72-8.42.72-11.67Z"/>
  <path class="st0" d="M83.42,259.96h-.58c-1.01-9.15-2.95-13.68-2.95-13.68v-1.22h28.3v1.22s-1.94,4.54-2.95,13.68h-.58c-1.22-9.15-3.89-13.68-5.98-13.68h-.72v24.77c0,3.31.22,6.7.43,10.01h-9.29c.22-3.31.43-6.7.43-10.01v-24.77h-.14c-2.09,0-4.75,4.54-5.98,13.68Z"/>
  <path class="st0" d="M151.89,281.06h-13.83c.65-4.25-1.01-11.09-2.09-16.56l-3.74-17.71c-.86-4.1-1.94-8.78-4.25-16.13h12.96c.58,6.62,1.37,12.02,2.23,16.13l6.05,29.02c.43,1.94,1.08,3.53,2.74,3.6-.5-18.43,1.8-33.41,5.33-39.96,3.53-6.48,8.28-9.72,14.11-9.72l-4.97,20.02h-.72c-4.97-23.69-22.39,17.35-4.39,55.16h-8.06c-.86-6.62-1.22-14.55-1.37-23.83Z"/>
  <path class="st0" d="M190.34,281.06h-10.87c.36-3.31.29-5.04-.22-7.7l-2.74-14.11c-.07-.29-.07-.58-.14-.86l-1.44-7.42c-.43-1.66-.94-3.53-1.73-5.9h9.72c.29,4.1,1.66,11.16,1.94,12.89l3.02,16.2.65,3.1c.36,1.66.94,2.02,1.8,2.09,0-12.24,1.22-24.19,3.67-28.59,2.38-4.32,5.47-6.55,9.36-6.55l-3.1,12.24c-2.66-5.11-6.98-3.1-8.14,11.3-.72,8.93-.86,17.79,1.73,29.09h-2.45c-.79-4.32-1.08-12.46-1.08-15.77Z"/>
  <path class="st0" d="M246.35,281.06h-13.83c.65-4.25-1.01-11.09-2.09-16.56l-3.74-17.71c-.86-4.1-1.94-8.78-4.25-16.13h12.96c.58,6.62,1.37,12.02,2.23,16.13l6.05,29.02c.43,1.94,1.08,3.53,2.74,3.6-.5-18.43,1.8-33.41,5.33-39.96,3.53-6.48,8.28-9.72,14.11-9.72l-4.97,20.02h-.72c-4.97-23.69-22.39,17.35-4.39,55.16h-8.06c-.86-6.62-1.22-14.55-1.37-23.83ZM240.95,225.47c0,3.6,1.73,4.1,3.82,4.1,1.94,0,3.6-.79,3.6-4.39h5.54c-1.37,4.18-5.18,5.62-9.15,5.62-4.25,0-8.14-1.15-9.58-5.33h5.76Z"/>
  <path class="st0" d="M284.8,281.06h-10.87c.36-3.31.29-5.04-.22-7.7l-2.74-14.11c-.07-.29-.07-.58-.14-.86l-1.44-7.42c-.43-1.66-.94-3.53-1.73-5.9h9.72c.29,4.1,1.66,11.16,1.94,12.89l3.02,16.2.65,3.1c.36,1.66.94,2.02,1.8,2.09,0-12.24,1.22-24.19,3.67-28.59,2.38-4.32,5.47-6.55,9.36-6.55l-3.1,12.24c-2.66-5.11-6.98-3.1-8.14,11.3-.72,8.93-.86,17.79,1.73,29.09h-2.45c-.79-4.32-1.08-12.46-1.08-15.77ZM280.41,239.87c0,3.6,1.73,4.1,3.82,4.1,1.94,0,3.6-.79,3.6-4.39h5.54c-1.37,4.18-5.18,5.62-9.15,5.62-4.25,0-8.14-1.15-9.58-5.33h5.76Z"/>
  <path class="st0" d="M337.43,287.4v-5.18c-10.87-.07-18.36-9.43-18.36-24.05s8.64-23.04,18.07-24.12c-.07-1.94-.22-4.18-.43-6.98h12.24c-.22,2.81-.36,5.04-.43,6.91,10.73.22,18,9.5,18,24.19s-7.42,23.98-18.29,24.05v5.18c0,3.24.22,7.06.72,11.67h-12.24c.58-4.61.72-8.42.72-11.67ZM337.43,281.06v-37.88c0-2.52,0-4.68-.22-7.99-6.26.94-6.05,7.56-6.05,22.97s-.22,22.83,6.26,22.9ZM354.71,258.16c0-15.48.14-22.83-6.26-23.04-.22,3.38-.22,5.54-.22,8.06v37.88c6.62-.07,6.48-7.42,6.48-22.9Z"/>
  <path class="st0" d="M370.84,262.48c0-11.23,6.91-18.51,15.12-18.51-.07-2.81-.22-5.62-.43-8.42h9.29c-.22,2.81-.36,5.62-.43,8.42,8.21.07,15.05,7.34,15.05,18.51,0,11.88-6.84,19.73-15.05,19.8v5.33c0,3.31.22,6.7.43,10.01h-9.29c.22-3.31.43-6.7.43-10.01v-5.33c-8.21,0-15.12-7.92-15.12-19.8ZM381.28,277.96c.86,1.51,2.88,3.1,4.68,3.1v-35.86c-2.45,0-4.61,1.44-5.11,2.88-.58,1.51-.86,4.9-.86,14.26,0,10.15.43,14.04,1.3,15.63ZM398.99,277.96c.86-1.58,1.3-5.47,1.3-15.63,0-9.36-.29-12.75-.86-14.26-.5-1.44-2.59-2.88-5.04-2.88v35.86c1.8-.07,3.74-1.58,4.61-3.1Z"/>
  <path class="st0" d="M462.71,244.77h-.72c-1.3-3.74-2.52-6.26-5.69-6.26s-6.41,2.09-9.15,5.62c.36.94.79,1.73,1.22,2.66l16.06,34.27h-11.59c-.72-2.81-1.3-4.39-2.3-6.7l-9.07-19.3c-2.59,7.7-3.53,17.07-1.51,25.99h-10.01c3.31-10.58,6.84-20.16,10.58-28.08l-10.51-22.32h12.1c1.08,4.18,1.66,5.62,3.67,10.51l.58,1.22c5.11-7.92,10.66-12.53,16.35-12.46v14.83Z"/>
  <path class="st0" d="M476.68,266.37l-11.52-20.59v-.72h10.8l5.9,10.58c4.61-7.92,8.57-10.58,11.88-10.58v9.86h-.72c-1.94-4.18-5.83-4.75-10.44,2.02l13.1,23.4v.72h-10.8l-7.56-13.54c-3.46,9.22-3.17,16.42-3.02,23.98h-4.9c1.37-7.7,2.95-14.98,7.27-25.13Z"/>
  <path class="st0" d="M519.08,269.4v-22.61c0-4.1-.07-7.34-.72-16.13h12.24c-.65,8.78-.72,12.02-.72,16.13v33.05h9.72v-33.05c0-4.1-.07-7.34-.72-16.13h12.24c-.65,8.78-.72,12.02-.72,16.13v22.61c0,3.24.22,7.06.72,11.67l-9.07,18h-2.23v-18h-21.46c.58-4.61.72-8.42.72-11.67Z"/>
  <path class="st0" d="M559.76,245.06h9.29c-.22,3.31-.43,6.7-.43,10.01v15.99c0,2.88.14,5.83.36,8.78h7.85c.22-2.95.36-5.9.36-8.78v-15.99c0-3.31-.22-6.7-.43-10.01h9.29c-.22,3.31-.43,6.7-.43,10.01v15.99c0,3.31.22,6.7.43,10.01l-6.19,17.79h-.72l-2.16-17.79h-17.21c.22-3.31.43-6.7.43-10.01v-15.99c0-3.31-.22-6.7-.43-10.01Z"/>
  <path class="st0" d="M638.46,231.38v-.72h18c-1.15,12.1-7.63,19.59-17.43,22.39v13.32c0,1.94.07,9.5.94,14.69h-12.67c.86-5.18.94-12.75.94-14.69v-13.32c-9.94-2.38-16.71-9.79-17.71-22.39h17.93v.72c-8.57,2.81-7.06,20.45,4.82,20.45,12.89,0,14.04-17.64,5.18-20.45Z"/>
  <path class="st0" d="M671.94,259.82c-6.98-1.51-10.44-6.48-11.16-14.76h11.88v.65c-4.9,3.96-4.68,13.9,3.46,13.9s8.35-9.94,3.46-13.9v-.65h11.88c-.72,8.28-4.18,13.25-11.09,14.76v11.23c0,3.31.22,6.7.43,10.01h-9.29c.22-3.31.43-6.7.43-10.01v-11.23Z"/>
  <path class="st0" d="M716.07,279.84c.43-4.03.58-7.49.58-10.44v-22.61c0-4.1-.07-7.34-.72-16.13h12.24c-.65,8.78-.72,12.02-.72,16.13v33.05h10.01v-33.05c0-4.1-.07-7.34-.72-16.13h12.24c-.65,8.78-.72,12.02-.72,16.13v33.05h9.86v-33.05c0-4.1-.07-7.34-.72-16.13h12.24c-.65,8.78-.72,12.02-.72,16.13v22.61c0,3.24.22,7.06.72,11.67h-53.72l.14-1.22Z"/>
  <path class="st0" d="M778.28,245.06h9.29c-.22,3.31-.43,6.7-.43,10.01v24.77h8.42v-24.84c0-3.31-.22-6.7-.43-10.01h9.29c-.22,3.31-.43,6.7-.43,10.01v24.84h8.42v-24.77c0-3.31-.22-6.7-.43-10.01h9.29c-.22,3.31-.43,6.7-.43,10.01v15.99c0,3.31.22,6.7.43,10.01h-42.99c.22-3.31.43-6.7.43-10.01v-15.99c0-3.31-.22-6.7-.43-10.01Z"/>
  <path class="st0" d="M46.34,366.24c.43-4.03.58-7.49.58-10.44v-22.61c0-4.1-.07-7.34-.72-16.13h12.24c-.65,8.78-.72,12.02-.72,16.13v33.05h10.01v-33.05c0-4.1-.07-7.34-.72-16.13h12.24c-.65,8.78-.72,12.02-.72,16.13v33.05h9.86v-33.05c0-4.1-.07-7.34-.72-16.13h12.24c-.65,8.78-.72,12.02-.72,16.13v22.61c0,3.24.22,7.06.72,11.67h-21.39v6.34c0,3.24.22,7.06.72,11.67h-12.24c.58-4.61.72-8.42.72-11.67v-6.34h-21.53l.14-1.22Z"/>
  <path class="st0" d="M108.55,331.46h9.29c-.22,3.31-.43,6.7-.43,10.01v24.77h8.42v-24.77c0-3.31-.22-6.7-.43-10.01h9.29c-.22,3.31-.43,6.7-.43,10.01v24.77h8.42v-24.77c0-3.31-.22-6.7-.43-10.01h9.29c-.22,3.31-.43,6.7-.43,10.01v15.99c0,3.31.22,6.7.43,10.01h-17.28v6.55c0,3.31.22,6.7.43,10.01h-9.29c.22-3.31.43-6.7.43-10.01v-6.55h-17.28c.22-3.31.43-6.7.43-10.01v-15.99c0-3.31-.22-6.7-.43-10.01Z"/>
  <path class="st0" d="M178.89,355.8v-22.61c0-4.1-.07-7.34-.72-16.13h12.24c-.65,8.78-.72,12.02-.72,16.13v6.26c10.8.36,19.73,3.74,19.73,23.69v4.32h-31.25c.58-4.61.72-8.42.72-11.67ZM198.12,366.24v-4.1c0-14.62-1.87-19.8-8.42-21.1v25.2h8.42Z"/>
  <path class="st0" d="M241.39,367.46h-25.49c.22-3.31.43-6.7.43-10.01v-15.99c0-3.31-.22-6.7-.43-10.01h9.29c-.22,3.31-.43,6.7-.43,10.01v7.49h1.08c6.48.29,15.48,2.02,15.55,18.51ZM232.31,366.24c-.14-14.47-2.52-15.55-7.56-16.06v16.06h7.56Z"/>
  <path class="st0" d="M266.58,355.8v-22.61c0-4.1-.07-7.34-.72-16.13h12.24c-.65,8.78-.72,12.02-.72,16.13v6.26c10.8.36,19.73,3.74,19.73,23.69v4.32h-31.25c.58-4.61.72-8.42.72-11.67ZM285.81,366.24v-4.1c0-14.62-1.87-19.8-8.42-21.1v25.2h8.42ZM302.23,355.8v-22.61c0-4.1-.07-7.34-1.08-16.13h12.89c-1.01,8.78-1.08,12.02-1.08,16.13v22.61c0,3.24.22,7.06,1.08,11.67h-12.89c.94-4.61,1.08-8.42,1.08-11.67Z"/>
  <path class="st0" d="M323.1,357.45v-15.99c0-3.31-.22-6.7-.43-10.01h9.29c-.22,3.31-.43,6.7-.43,10.01v7.49h1.08c6.48.29,15.48,2.02,15.55,18.51h-25.49c.22-3.31.43-6.7.43-10.01ZM339.09,366.24c-.14-14.47-2.52-15.55-7.56-16.06v16.06h7.56ZM352.7,331.46h9.29c-.22,3.31-.43,6.7-.43,10.01v15.99c0,3.31.22,6.7.43,10.01h-9.29c.22-3.31.43-6.7.43-10.01v-15.99c0-3.31-.22-6.7-.43-10.01Z"/>
  <path class="st0" d="M396.61,355.8v-37.52c-3.38.07-7.42,5.4-8.14,15.91h-1.3c-.29-4.32-1.15-9.65-2.52-15.91v-1.22h23.47c-.65,8.78-.72,12.02-.72,16.13v6.26c10.8.36,19.73,3.74,19.73,23.69v4.32h-31.25c.58-4.61.72-8.42.72-11.67ZM415.84,366.24v-4.1c0-14.62-1.87-19.8-8.42-21.1v25.2h8.42Z"/>
  <path class="st0" d="M441.33,357.45v-24.77h-.72c-1.08,0-3.02,0-5.33,3.1-1.73,2.38-2.23,5.76-3.31,10.01h-.72l-1.58-13.1v-1.22h20.52c-.22,3.31-.43,6.7-.43,10.01v7.49h1.08c6.48.29,15.48,2.02,15.55,18.51h-25.49c.22-3.31.43-6.7.43-10.01ZM457.31,366.24c-.14-14.47-2.52-15.55-7.56-16.06v16.06h7.56Z"/>
  <path class="st0" d="M498.85,355.8v-37.52c-3.38.07-7.42,5.4-8.14,15.91h-1.3c-.29-4.32-1.15-9.65-2.52-15.91v-1.22h23.47c-.65,8.78-.72,12.02-.72,16.13v6.26c10.8.36,19.73,3.74,19.73,23.69v4.32h-31.25c.58-4.61.72-8.42.72-11.67ZM518.08,366.24v-4.1c0-14.62-1.87-19.8-8.42-21.1v25.2h8.42ZM534.28,355.8v-22.61c0-4.1-.07-7.34-1.08-16.13h12.89c-1.01,8.78-1.08,12.02-1.08,16.13v22.61c0,3.24.22,7.06,1.08,11.67h-12.89c.94-4.61,1.08-8.42,1.08-11.67Z"/>
  <path class="st0" d="M550.76,331.46h20.52c-.22,3.31-.43,6.7-.43,10.01v7.49h1.08c6.48.29,15.48,2.02,15.55,18.51h-25.49c.22-3.31.43-6.7.43-10.01v-24.77h-.72c-1.08,0-3.02,0-5.33,3.1-1.73,2.38-2.23,5.76-3.31,10.01h-.72l-1.58-13.1v-1.22ZM578.42,366.24c-.14-14.47-2.52-15.55-7.56-16.06v16.06h7.56ZM591.95,331.46h9.29c-.22,3.31-.43,6.7-.43,10.01v15.99c0,3.31.22,6.7.43,10.01h-9.29c.22-3.31.43-6.7.43-10.01v-15.99c0-3.31-.22-6.7-.43-10.01Z"/>
  <path class="st0" d="M641.2,368.54c-10.66.07-15.48-8.71-15.48-14.4h10.37c-.07,4.46.29,13.32,4.97,13.25,7.49-.14,7.06-13.75,7.06-25.06v-1.15h-19.8v-1.22h19.8c-.07-11.95-.72-22.83-5.98-22.83-3.38,0-5.9,3.24-6.05,14.69h-10.37c.07-6.12,5.26-15.84,16.42-15.84,10.15,0,17.5,10.66,17.5,26.35s-7.34,26.14-18.43,26.21Z"/>
  <path class="st0" d="M674.68,368.54c-5.98-.14-10.01-2.88-10.73-9.65h7.2c0,5.9,1.01,8.28,3.53,8.42,2.09.14,4.97.14,5.11-17.28h-12.75v-1.22h12.75v-.14c0-16.56-2.09-17.07-5.11-17.07-2.23,0-3.53,2.02-3.53,7.2h-7.2c.72-5.33,4.75-8.42,10.73-8.42,8.42,0,14.33,7.42,14.33,18.29,0,13.18-5.98,20.09-14.33,19.87Z"/>
  <path class="st0" d="M723.92,355.8v-22.61c0-2.45,0-4.68-.22-7.92-4.39,1.22-8.64,4.9-10.58,13.32h-1.08c-.36-4.32-.94-7.49-2.52-13.75v-1.22h14.11c-.07-1.8-.22-3.96-.43-6.55h12.24c-.22,2.59-.36,4.75-.43,6.55h14.47v1.22c-1.58,6.26-2.16,9.43-2.52,13.75h-1.08c-2.02-8.64-6.41-12.31-10.95-13.39-.22,3.31-.22,5.47-.22,7.99v6.19c11.52.14,21.24,2.88,21.24,23.76v4.32h-11.3v-5.33c0-15.62-2.16-20.45-9.94-21.39v15.05c0,3.24.22,7.06.72,11.67h-12.24c.58-4.61.72-8.42.72-11.67Z"/>
  <path class="st0" d="M762.44,334.27v-7.2c0-3.31-.22-6.7-.43-10.01h9.29c-.22,3.31-.43,6.7-.43,10.01v7.2h14.69v1.22h-14.69v9.14h1.08c5.83.29,13.68,1.66,15.27,13.9.14,1.15.22,2.45.29,3.82.14,1.58.29,3.17.5,5.11h-9.43c.14-1.44.29-2.95.29-4.32h-.43c0-15.63-2.38-16.78-7.56-17.28v21.6h-8.86c.22-3.31.43-6.7.43-10.01v-21.96h-3.6v-1.22h3.6Z"/>
  <path class="st0" d="M813.56,355.8v-22.61c0-4.1-.07-7.34-.72-16.13h12.24c-.65,8.78-.72,12.02-.72,16.13v6.55h9.29c.79-13.54,7.56-23.76,17.86-23.76,10.95,0,18,11.52,18,26.35s-7.06,26.21-18,26.21-17.93-11.52-17.93-26.21v-1.37h-9.22v14.83c0,3.24.22,7.06.72,11.67h-12.24c.58-4.61.72-8.42.72-11.67ZM846.4,364c.86,2.23,2.52,3.38,5.11,3.38s4.39-1.15,5.18-3.38c.94-2.3,1.37-9.58,1.37-21.67s-.43-19.51-1.37-21.67c-.79-2.38-2.52-3.53-5.18-3.53s-4.25,1.15-5.11,3.53c-1.01,2.16-1.3,9.43-1.3,21.67s.29,19.37,1.3,21.67Z"/>
  <path class="st0" d="M875.98,331.46h9.29c-.22,3.31-.43,6.7-.43,10.01v7.34h4.83c0-11.16,6.19-18.43,14.4-18.43s14.47,7.27,14.47,18.58-5.62,19.59-14.47,19.59c-7.92,0-13.97-7.42-14.4-18.51h-4.83v7.42c0,3.31.22,6.7.43,10.01h-9.29c.22-3.31.43-6.7.43-10.01v-15.99c0-3.31-.22-6.7-.43-10.01ZM900.11,364.22c.86,1.51,2.16,3.1,3.96,3.1,2.09,0,3.53-1.58,4.25-3.1.65-1.58,1.01-5.4,1.01-15.27s-.36-12.96-1.01-14.47c-.72-1.44-2.16-2.88-4.25-2.88-2.45,0-3.89,1.44-4.46,2.88-.5,1.51-.79,4.9-.79,14.26,0,10.01.43,13.9,1.3,15.48Z"/>
  <path class="st0" d="M955.55,315.98c11.09,0,17.64,5.76,17.64,20.95v16.99c0,3.6.07,7.99.72,13.54h-11.45v-26.64c-7.7,1.87-8.14,15.7-8.14,21.89v4.75h-11.02v-3.89c0-12.6,4.32-20.45,14.76-23.11-10.58-1.01-15.05-6.98-15.05-12.67,0-5.98,4.82-11.81,12.53-11.81ZM962.46,339.52c0-2.81.07-6.7.07-9.07,0-9.79-2.59-13.47-5.04-13.39-3.6.07-4.61,4.54-4.61,9.5,0,5.9,2.45,12.38,9.58,12.96Z"/>
  <path class="st0" d="M987.8,367.46h-8.86c.22-8.78,1.73-17.57,10.66-19.95-6.05-.79-10.44-3.17-10.58-8.28-.14-5.62,3.74-8.86,11.74-8.86,6.05,0,12.53,4.82,12.53,17.64v9.36c0,3.31.22,6.7.43,10.01h-9.29c.22-3.31.43-6.7.43-10.01v-9.58c-4.32,2.16-7.56,6.55-7.06,19.66ZM994.86,346.87v-6.91c0-5.62-1.94-8.5-4.1-8.5-2.74,0-4.39,1.87-4.25,7.06.14,5.62,4.97,8.35,8.35,8.35Z"/>
  <path class="st0" d="M1034.02,317.78v-.72h21.89v.72c-3.53,0-4.54,2.3-3.17,6.98l14.76,41.76v.94h-11.31l-8.71-27.43-5.91-15.27-4.82,15.27-3.96,12.03c-2.23,8.78-2.38,12.6,1.37,14.47v.94h-9.58v-.94c1.51-1.3,3.17-4.18,4.9-8.64l11.23-34.71c-.94-3.6-3.17-5.4-6.7-5.4ZM1036.76,340.03h10.73l.07,27.43h-10.8v-27.43Z"/>
  <path class="st0" d="M1070.74,366.88c1.3-1.37,2.95-4.61,4.61-8.93l8.64-22.54c-.65-2.3-1.8-3.53-4.1-3.53v-.58l16.06.07v.58c-2.38,0-3.1,1.51-2.09,4.54l6.55,20.38c.07.14.07.29.14.43l1.58,5.04c.72,2.02,1.44,3.96,1.94,5.11h-10.8c.22-2.95.22-3.67-.79-7.78l-3.31-10.51h-.36l.07,18.29h-8.35v-18.29h-.43l-3.38,8.78c-1.66,4.32-.86,7.63,2.16,8.93v.58h-8.14v-.58ZM1088.82,347.95l-3.89-11.31-4.39,11.31h8.28Z"/>
  <path class="st0" d="M46.91,442.2v-22.61c0-4.1-.07-7.34-.72-16.13h12.24c-.65,8.78-.72,12.02-.72,16.13v6.77h7.85c.72-14.4,7.78-23.98,17.43-23.98,11.16,0,16.35,9.72,16.42,15.84h-10.37c-.14-11.45-2.66-14.69-6.05-14.69-5.26,0-5.9,10.87-5.98,22.83h19.8v1.22h-19.8v1.15c0,11.31-.43,24.91,7.06,25.06,4.68.07,5.04-8.79,4.97-13.25h10.37c0,5.69-4.82,14.47-15.48,14.4-11.09-.07-18.43-10.51-18.43-26.21v-1.15h-7.78v14.62c0,3.24.22,7.06.72,11.67h-12.24c.58-4.61.72-8.42.72-11.67Z"/>
  <path class="st0" d="M105.88,417.86h9.29c-.22,3.31-.43,6.7-.43,10.01v7.34h5.69v-.14c0-10.87,5.9-18.29,14.33-18.29,5.98,0,10.01,3.1,10.73,8.42h-7.2c0-5.18-1.3-7.2-3.53-7.2-3.02,0-5.11.5-5.11,17.07v.14h12.75v1.22h-12.75c.14,17.43,3.02,17.43,5.11,17.28,2.52-.14,3.53-2.52,3.53-8.42h7.2c-.72,6.77-4.75,9.5-10.73,9.65-8.06.22-13.9-6.19-14.33-18.51h-5.69v7.42c0,3.31.22,6.7.43,10.01h-9.29c.22-3.31.43-6.7.43-10.01v-15.99c0-3.31-.22-6.7-.43-10.01Z"/>
  <path class="st0" d="M197.68,453.86h-12.39c.86-5.18.72-12.75.72-14.69v-14.98c-7.49,1.08-8.21,17.64-8.21,24.34v5.33h-11.02v-4.32c0-16.85,7.34-26.64,20.67-26.64h.94l-22.54-18.79v-.65h51.27v.65l-22.54,18.79h1.08c13.32,0,20.23,9.79,20.23,26.64v4.32h-11.02v-5.33c0-7.56-.94-23.19-8.14-24.34v14.98c0,1.94.07,9.5.94,14.69ZM192.86,422.9c13.9-11.45,14.69-18.07-1.37-18.22-16.06.14-15.27,6.77-1.37,18.22h2.74Z"/>
  <path class="st0" d="M250.53,448.1c.14-6.19-.65-13.1-7.13-14.26v10.01c0,3.31.22,6.7.43,10.01h-9.29c.22-3.31.43-6.7.43-10.01v-10.08c-6.98.86-7.78,7.92-7.63,14.33.14,2.3.22,3.17.5,5.76h-10.15c.22-1.73.29-3.24.58-4.82,1.15-9,7.42-16.2,18.22-16.2h.5l-14.98-14.26v-.72h33.84v.72l-14.98,14.26h.5c10.8,0,17.07,7.2,18.22,16.2.29,1.58.36,3.1.58,4.82h-10.15c.29-2.59.36-3.46.5-5.76ZM239.15,432.83c11.23-10.8,10.73-13.75-.22-13.75s-11.45,2.95-.22,13.75h.43Z"/>
  <path class="st0" d="M307.41,404.18v-.72h21.89v.72c-3.53,0-4.54,2.3-3.17,6.98l14.76,41.76v.94h-11.31l-8.28-25.99h-.43l.07,25.99h-10.8v-26.07h-.43l-3.53,10.66c-2.23,8.78-2.38,12.6,1.37,14.47v.94h-9.58v-.94c1.51-1.3,3.17-4.18,4.9-8.64l5.33-16.49-13.83-.07v14.47c0,3.24.22,7.06.72,11.67h-12.24c.58-4.61.72-8.42.72-11.67v-22.61c0-4.1-.07-7.34-.72-16.13h12.24c-.65,8.78-.72,12.02-.72,16.13v6.91h14.26l5.47-16.92c-.94-3.6-3.17-5.4-6.7-5.4ZM310.15,426.43h10.73v.07-.07l-5.9-15.27-4.82,15.27v.07-.07Z"/>
  <path class="st0" d="M347.8,443.85v-15.99c0-3.31-.22-6.7-.43-10.01h9.29c-.22,3.31-.43,6.7-.43,10.01v6.55h10.44l4.82-12.6c-.65-2.3-1.8-3.53-4.1-3.53v-.58l16.06.07v.58c-2.38,0-3.1,1.51-2.09,4.54l6.55,20.38c.07.14.07.29.14.43l1.58,5.04c.72,2.02,1.44,3.96,1.94,5.11h-10.8c.22-2.95.22-3.67-.79-7.78l-3.24-10.44h-.43l.07,18.22h-8.35v-18.22h-.5l-3.31,8.71c-1.66,4.32-.86,7.63,2.16,8.93v.58h-8.14v-.58c1.3-1.37,2.95-4.61,4.61-8.93l3.31-8.71h-9.94v8.21c0,3.31.22,6.7.43,10.01h-9.29c.22-3.31.43-6.7.43-10.01ZM376.32,434.35l-3.89-11.31-4.39,11.31h8.28Z"/>
  <path class="st0" d="M415.7,442.2v-22.61c0-4.1-.07-7.34-.72-16.13h12.24c-.65,8.78-.72,12.02-.72,16.13v3.24h31.9l-22.47-18.72v-.65h51.27v.65l-22.54,18.79h1.08c13.32,0,20.23,9.79,20.23,26.64v4.32h-11.02v-5.33c0-7.56-.94-23.19-8.14-24.34v14.98c0,1.94.07,9.5.94,14.69h-12.39c.86-5.18.72-12.75.72-14.69v-14.98c-7.49,1.08-8.21,17.64-8.21,24.34v5.33h-11.02v-4.32c0-13.47,4.68-22.47,13.39-25.49h-23.76v18.15c0,3.24.22,7.06.72,11.67h-12.24c.58-4.61.72-8.42.72-11.67ZM463,422.83c13.83-11.38,14.62-18-1.44-18.15-16.06.14-15.27,6.77-1.44,18.15h2.88Z"/>
  <path class="st0" d="M538.24,448.1c.14-6.19-.65-13.1-7.13-14.26v10.01c0,3.31.22,6.7.43,10.01h-9.29c.22-3.31.43-6.7.43-10.01v-9.79h-1.37c-5.69,1.58-6.41,8.14-6.26,14.04.14,2.3.22,3.17.5,5.76h-10.15c.22-1.73.29-3.24.58-4.82.86-6.77,4.68-12.53,11.09-14.98h-16.49v9.79c0,3.31.22,6.7.43,10.01h-9.29c.22-3.31.43-6.7.43-10.01v-15.99c0-3.31-.22-6.7-.43-10.01h9.29c-.22,3.31-.43,6.7-.43,10.01v4.97h24.12l-14.98-14.26v-.72h33.84v.72l-14.98,14.26h.5c10.8,0,17.07,7.2,18.22,16.2.29,1.58.36,3.1.58,4.82h-10.15c.29-2.59.36-3.46.5-5.76ZM526.87,432.83c11.23-10.8,10.73-13.75-.22-13.75s-11.45,2.95-.22,13.75h.43Z"/>
  <path class="st0" d="M568.41,453.86v-1.22c20.67-6.19,22.75-25.13.58-23.91l17.93-17.64c-1.51.14-2.88.22-4.1.22-5.54,0-15.84-1.66-13.25-7.85h6.91l-1.44,3.17c-1.37,3.02,10.22,4.97,14.04,1.8l5.98-5.33v6.05c-1.94.79-4.18,1.37-6.34,1.73l-11.59,11.59c26.64-3.31,24.63,16.2-4.54,30.17,10.37.22,31.32-1.8,27.51,10.08h-7.7c2.66-10.8-14.55-8.5-23.98-8.86Z"/>
  <path class="st0" d="M604.84,453.86v-.94c16.63-6.34,18.29-20.23.43-19.23l14.4-14.19c-1.15.07-2.3.14-3.24.14-4.46,0-12.75-1.37-10.66-6.26h5.54l-1.15,2.3c-1.22,2.38,8.21,3.96,11.31,1.44l4.82-4.03v4.82c-1.44.58-3.1,1.01-4.68,1.3l-9.43,9.43c20.74-4.54,20.02,13.97-3.46,23.98,8.35,0,24.7-1.15,21.6,8.35h-6.19c2.16-8.64-11.74-6.84-19.3-7.13Z"/>
  <path class="st0" d="M652.93,452.64c20.52-16.13,10.87-52.28-.65-31.97h-1.08l1.08-18.36c16.06,6.48,16.13,30.46,11.45,50.33h7.92v-33.05c0-4.1-.07-7.34-.72-16.13h12.24c-.65,8.78-.72,12.02-.72,16.13v33.05h8.21c-4.68-19.87-4.61-43.85,11.45-50.33l1.08,18.36h-1.08c-11.52-20.31-21.17,15.84-.65,31.97v1.22h-19.01v6.34c0,3.24.22,7.06.72,11.67h-12.24c.58-4.61.72-8.42.72-11.67v-6.34h-18.72v-1.22Z"/>
  <path class="st0" d="M704.7,429.59h-.79l.79-12.82c11.16,4.54,11.23,22.25,7.99,35.86h5.18v-39.17c0-3.31-.22-6.7-.43-10.01h9.29c-.22,3.31-.43,6.7-.43,10.01v39.17h5.11c-3.24-13.61-3.17-31.32,7.99-35.86l.79,12.82h-.79c-7.99-14.19-14.76,12.31-.43,23.55v.72h-12.67v7.99c0,3.31.22,6.7.43,10.01h-9.29c.22-3.31.43-6.7.43-10.01v-7.99h-12.75v-.72c14.33-11.23,7.56-37.73-.43-23.55Z"/>
  <path class="st0" d="M760.72,428.73c0-14.83,6.98-26.35,17.93-26.35s18,11.52,18,26.35-7.06,26.21-18,26.21-17.93-11.52-17.93-26.21ZM785.2,427.72c0-11.67-.43-18.58-1.37-20.67-.79-2.38-2.52-3.53-5.18-3.53s-4.25,1.15-5.11,3.53c-1.01,2.09-1.3,9-1.3,20.67h12.96ZM773.53,450.4c.86,2.23,2.52,3.38,5.11,3.38s4.39-1.15,5.18-3.38c.94-2.3,1.37-9.5,1.37-21.46h-12.96c0,11.95.29,19.15,1.3,21.46Z"/>
  <path class="st0" d="M835.45,434.13h7.42v.72l-1.73,9.15h-.72c-.07-3.1-.43-4.9-1.73-6.62-1.58-2.23-2.66-2.02-3.24-2.02,0,11.66-5.62,19.59-14.47,19.59-8.21,0-14.4-7.92-14.4-19.59-.58,0-1.66-.22-3.24,2.02-1.3,1.73-1.66,3.53-1.73,6.62h-.72l-1.73-9.15v-.72h7.42c.43-10.58,6.48-17.35,14.4-17.35s14.04,6.77,14.47,17.35ZM826.24,434.13c0-8.57-.36-11.81-1.01-13.25-.72-1.44-2.16-2.88-4.25-2.88-2.45,0-3.89,1.44-4.46,2.88-.5,1.44-.79,4.68-.79,13.25h10.51ZM817.02,450.62c.86,1.51,2.16,3.1,3.96,3.1,2.09,0,3.53-1.58,4.25-3.1.65-1.58,1.01-5.4,1.01-15.27h-10.51c0,9.86.43,13.68,1.3,15.27Z"/>
  <path class="st0" d="M869.94,437.3l-3.74-17.71c-.86-4.1-1.94-8.78-4.25-16.13h12.96c.58,6.62,1.37,12.02,2.23,16.13l6.05,29.02c.43,1.94,1.08,2.81,2.74,2.81,0-18.29,1.8-32.62,5.33-39.17,3.53-6.48,8.28-9.72,14.11-9.72l-4.97,20.02h-.72c-2.81-13.32-10.37-4.1-11.52,11.23-1.01,13.47-.79,14.76-.72,20.09h-15.41c.65-4.25-1.01-11.09-2.09-16.56Z"/>
  <path class="st0" d="M913.21,446.16l-4.25-22.11c-.43-1.73-.94-3.67-1.8-6.19h9.72c.29,4.1,1.66,11.16,1.94,12.89l3.46,18.36c.43,2.45,1.01,2.95,2.02,3.02,0-12.24,1.22-24.41,3.67-28.8,2.38-4.32,5.47-6.55,9.36-6.55l-3.1,12.24c-2.66-5.11-6.98-3.1-8.14,11.52-.72,8.93-.58,11.02-.58,13.32h-12.1c.36-3.31.29-5.04-.22-7.7Z"/>
  <path class="st0" d="M46.19,513.4c0-11.38,4.82-24.34,20.38-24.41v1.15c-10.44.14-8.86,11.81-8.86,15.91,0,6.7.22,20.02.29,25.56s2.3,8.35,5.26,8.35c3.96,0,5.83-2.59,5.9-7.85v-11.38c0-4.1-.07-7.34-.72-16.13h12.24c-.65,8.78-.72,12.02-.72,16.13v11.38c.07,5.26,1.94,7.85,5.9,7.85,2.95,0,5.18-2.81,5.26-8.35.07-5.54.29-18.87.29-25.56,0-4.1,1.58-15.77-8.86-15.91v-1.15c15.55.07,20.38,13.03,20.38,24.41,0,18.51-7.71,27.51-17.79,27.51-4.75,0-7.99-2.16-10.58-8.78-2.59,6.62-5.83,8.78-10.58,8.78-10.08,0-17.79-9-17.79-27.51Z"/>
  <path class="st0" d="M109.41,521.47c0-11.02,6.19-18.29,14.4-18.29h2.09v1.22h-2.09c-2.45,0-3.89,1.44-4.39,2.88-.58,1.51-.86,4.9-.86,14.04,0,10.22.43,14.11,1.3,15.7.86,1.51,2.16,3.1,3.96,3.1,2.09,0,4.61-1.08,4.82-5.4v-7.99c0-3.31-.22-6.7-.43-10.01h9.29c-.22,3.31-.43,6.7-.43,10.01v7.99c.22,4.32,2.74,5.4,4.82,5.4,1.8,0,3.1-1.58,3.96-3.1.86-1.58,1.3-5.47,1.3-15.7,0-9.15-.29-12.53-.86-14.04-.5-1.44-1.94-2.88-4.39-2.88h-2.09v-1.22h2.09c8.21,0,14.4,7.27,14.4,18.29,0,11.95-6.19,19.87-14.4,19.87-4.32,0-7.92-2.02-9-6.62h-.07c-1.08,4.61-4.68,6.62-9,6.62-8.21,0-14.4-7.92-14.4-19.87Z"/>
  <path class="st0" d="M201.14,488.99v1.15c-10.44.14-8.86,11.81-8.86,15.91,0,6.7.22,20.02.29,25.56s2.3,8.35,5.26,8.35c3.96,0,5.83-2.59,5.9-7.85v-11.38c0-4.1-.07-7.34-.72-16.13h12.24c-.65,8.78-.72,12.02-.72,16.13v11.38c.07,5.26,1.94,7.85,5.9,7.85,2.95,0,5.18-2.81,5.26-8.35.07-5.54.29-18.87.29-25.56,0-4.1,1.58-15.77-8.86-15.91v-1.15c15.55.07,20.38,13.03,20.38,24.41,0,18.51-7.7,27.51-17.79,27.51-4.75,0-7.99-2.16-10.58-8.78-2.59,6.62-5.83,8.78-10.58,8.78-10.08,0-17.79-9-17.79-27.51,0-11.38,4.82-24.34,20.38-24.41ZM224.76,481.58l-2.66,6.05h-.86c-2.59-4.18-4.75-5.54-6.62-5.54-.79,0-1.22.58-1.22,1.94v3.67h-8.14v-3.67c0-1.37-.36-1.94-.94-1.94-1.94,0-4.18,1.37-6.77,5.54h-.86l-2.59-6.05v-.65h30.67v.65Z"/>
  <path class="st0" d="M259.53,503.18h2.09v1.22h-2.09c-2.45,0-3.89,1.44-4.39,2.88-.58,1.51-.86,4.9-.86,14.04,0,10.22.43,14.11,1.3,15.7.86,1.51,2.16,3.1,3.96,3.1,2.09,0,4.61-1.08,4.82-5.4v-7.99c0-3.31-.22-6.7-.43-10.01h9.29c-.22,3.31-.43,6.7-.43,10.01v7.99c.22,4.32,2.74,5.4,4.82,5.4,1.8,0,3.1-1.58,3.96-3.1.86-1.58,1.3-5.47,1.3-15.7,0-9.15-.29-12.53-.86-14.04-.5-1.44-1.94-2.88-4.39-2.88h-2.09v-1.22h2.09c8.21,0,14.4,7.27,14.4,18.29,0,11.95-6.19,19.87-14.4,19.87-4.32,0-7.92-2.02-9-6.62h-.07c-1.08,4.61-4.68,6.62-9,6.62-8.21,0-14.4-7.92-14.4-19.87,0-11.02,6.19-18.29,14.4-18.29ZM278.47,497.99l-1.8,3.67h-.72c-1.73-2.74-2.95-3.17-4.18-3.17-.5,0-.79.22-.79,1.08v3.6h-5.4v-3.6c0-.86-.22-1.08-.65-1.08-1.22,0-2.74.43-4.46,3.17h-.72l-1.51-3.67v-.72h20.23v.72Z"/>
  <path class="st0" d="M317.2,528.6v-22.61c0-4.1-.07-7.34-.72-16.13h12.24l-.5,7.27h9.36l-.5-7.27h12.24l-.5,7.27h17.35v1.22c-1.58,6.26-2.16,9.43-2.52,13.75h-1.08c-2.38-10.44-8.35-13.68-13.83-13.75-.14,3.1-.14,5.26-.14,7.63v6.26c10.8.36,19.73,3.74,19.73,23.69v4.32h-31.25c.58-4.61.72-8.42.72-11.67v-22.61c0-2.38,0-4.54-.14-7.63h-9.5c-.14,3.1-.14,5.26-.14,7.63v22.61c0,3.24.22,7.06.72,11.67h-12.24c.58-4.61.72-8.42.72-11.67ZM357.02,539.04v-4.1c0-14.62-1.87-19.8-8.42-21.1v25.2h8.42Z"/>
  <path class="st0" d="M391.65,504.26h9.29c-.14,2.38-.29,4.82-.36,7.27h14.33v.72c-1.66,2.52-2.59,5.47-3.38,8.78h-.72c-1.08-4.39-3.31-6.34-5.62-7.49-1.3-.65-3.1-.79-4.68-.79v9h1.08c6.48.29,15.48,2.02,15.55,18.51h-25.06v-27.51h-8.42v27.51h-8.86c.22-3.31.43-6.7.43-10.01v-15.99c0-3.31-.22-6.7-.43-10.01h9.29c-.14,2.38-.29,4.82-.36,7.27h8.28c-.07-2.45-.22-4.9-.36-7.27ZM408.07,539.04c-.14-14.47-2.52-15.55-7.56-16.06v16.06h7.56Z"/>
  <path class="st0" d="M439.46,526.65c0-10.58,10.94-14.76,20.09-14.76,8.42,0,19.95,4.18,19.95,14.76,0,11.16-10.8,14.69-19.95,14.69s-20.09-3.53-20.09-14.69ZM442.48,506.99h-1.01v-16.85c12.6,0,21.03,7.27,21.03,18.36l-.07,4.1-7.42.14c.29-12.96-8.93-13.54-12.53-5.76ZM468.11,526.58c-.14-10.58-4.46-13.47-8.57-13.47s-8.42,2.88-8.57,13.47c-.14,10.66,3.89,13.54,8.57,13.54s8.71-2.88,8.57-13.54ZM459.11,511.89q7.7,0,0,0t0,0ZM461.71,512.61l.72-.72c0-14.47,4.03-21.75,16.63-21.75v16.85h-.72c-5.76-12.46-14.98-7.34-14.69,5.62h-1.94Z"/>
  <path class="st0" d="M484.38,529.96c0-5.98,4.68-10.01,11.3-10.94-8.06-1.51-11.52-6.48-12.24-14.76h11.88v.65c-4.9,3.96-4.68,13.9,3.46,13.9s8.35-9.94,3.46-13.9v-.65h11.88c-.72,8.28-4.18,13.25-12.17,14.76,6.84.94,11.31,4.97,11.31,10.94,0,7.2-5.62,11.38-14.47,11.38-8.21,0-14.4-4.18-14.4-11.38ZM498.79,540.26c5.4,0,5.26-4.68,5.26-10.3,0-3.67.14-10.01-5.26-10.01-5.69,0-5.26,6.34-5.26,9.94,0,5.69.43,10.37,5.26,10.37Z"/>
  <path class="st0" d="M538.31,490.5v-.65h24.91v.65c-4.39,0-5.83,2.81-4.97,8.14l4.68,29.31c.43,2.88,1.22,6.91,2.45,12.31h-29.02l8.06-41.62c1.22-5.4-.86-8.14-6.12-8.14ZM552.14,538.96l-2.66-19.01h-7.85l-3.67,19.01h14.19ZM549.33,518.73l-3.17-22.11-4.25,22.11h7.42Z"/>
  <path class="st0" d="M593.97,540.26h-23.76l7.2-31.54c.43-2.02-1.08-3.31-4.61-3.74v-.72h19.3v.72c-3.31.43-4.75,1.73-4.32,3.74l6.19,30.96v.58ZM584.32,539.04l-2.3-11.31h-7.78l-2.52,11.31h12.6ZM581.73,526.51l-3.38-16.92-3.82,16.92h7.2Z"/>
  <path class="st0" d="M633.64,488.78c11.3,0,14.69,9,14.76,15.12h-9.65c-.14-11.45-2.66-13.97-5.33-13.97-3.02,0-4.82,1.22-5.69,4.32-1.15,4.25-.94,12.75-1.01,20.88.07,6.84.22,14.91,1.01,19.23.86,4.54,2.52,5.83,5.69,5.83,5.33,0,5.11-7.56,5.11-8.71l9.43,1.15v.72l-4.46,24.84-8.21-1.22,9.14-18.72c-2.16,1.73-5.54,3.1-10.8,3.1-11.09-.07-18.43-10.51-18.43-26.21s7.34-26.35,18.43-26.35Z"/>
  <path class="st0" d="M665.89,558.26l8.28-18.79c-1.58,1.08-3.96,1.8-7.13,1.87-8.35.22-14.33-6.7-14.33-19.66,0-11.09,5.9-18.51,14.33-18.51,5.98,0,10.73,3.1,10.73,8.42h-7.92c0-5.18-.58-7.2-2.81-7.2-3.02,0-5.11.5-5.11,17.28,0,18.58,2.95,18.58,5.11,18.43,2.52-.14,2.81-2.52,2.81-5.26l6.62.86-.07,1.22-4.68,22.18-5.83-.86Z"/>
  <path class="st0" d="M698.65,532.48c.14-7.85,6.48-10.15,10.08-11.09,4.75-1.37,6.98-4.54,6.98-8.57,0-5.11-1.37-8.35-4.39-8.35-2.02,0-3.53,2.88-3.53,8.06h-7.92c0-4.97,3.02-9.36,11.45-9.36s12.89,3.6,12.89,8.86c0,7.7-6.98,8.06-10.51,9.07-5.98,1.66-5.83,5.62-5.9,10.66-.07,5.04.65,8.35,3.96,8.35,2.38,0,4.1-2.59,4.1-8.14h7.78c0,5.76-2.38,9.36-11.88,9.36-9,0-13.18-3.02-13.11-8.86Z"/>
  <path class="st0" d="M66.14,595.84c2.3,0,4.03,1.87,4.03,3.89,0,2.38-1.73,4.32-4.03,4.32s-4.1-1.94-4.1-4.32c0-2.02,1.87-3.89,4.1-3.89ZM66.14,616c2.3,0,4.03,1.87,4.03,3.89,0,2.38-1.73,4.32-4.03,4.32s-4.1-1.94-4.1-4.32c0-2.02,1.87-3.89,4.1-3.89Z"/>
  <path class="st0" d="M96.81,618.81c2.02,0,3.89,1.87,3.89,4.1s-1.87,4.03-3.89,4.03c-2.38,0-4.32-1.73-4.32-4.03s1.94-4.1,4.32-4.1ZM120.86,622.92c0,2.3-1.87,4.03-3.89,4.03-2.38,0-4.32-1.73-4.32-4.03s1.94-4.1,4.32-4.1c2.02,0,3.89,1.87,3.89,4.1ZM137.13,618.81c2.02,0,3.89,1.87,3.89,4.1s-1.87,4.03-3.89,4.03c-2.38,0-4.32-1.73-4.32-4.03s1.94-4.1,4.32-4.1Z"/>
  <path class="st0" d="M167.37,605.78c2.3,0,4.03,1.87,4.03,3.89,0,2.38-1.73,4.32-4.03,4.32s-4.1-1.94-4.1-4.32c0-2.02,1.87-3.89,4.1-3.89Z"/>
  <path class="st0" d="M201.93,622.92c0,2.3-1.87,4.03-3.89,4.03-2.38,0-4.32-1.73-4.32-4.03s1.94-4.1,4.32-4.1c2.02,0,3.89,1.87,3.89,4.1ZM218.2,618.81c2.02,0,3.89,1.87,3.89,4.1s-1.87,4.03-3.89,4.03c-2.38,0-4.32-1.73-4.32-4.03s1.94-4.1,4.32-4.1Z"/>
  <path class="st0" d="M278.75,615v-23.11h-1.22c-2.3,0-6.34,7.71-7.85,21.6h-.65c-1.37-13.9-2.59-18.87-3.89-22.11v-.72h13.61c0-3.38-.14-6.84-.72-14.4h12.24c-.58,7.56-.72,11.02-.72,14.4h12.17v.72c-1.3,3.24-2.52,8.21-3.89,22.11h-.65c-1.44-13.47-5.33-21.1-7.63-21.6v23.11c0,3.24.22,7.06.72,11.67h-12.24c.58-4.61.72-8.42.72-11.67Z"/>
  <path class="st0" d="M325.05,633v-14.55h-1.15c-2.3,0-6.34,7.71-7.85,21.6h-.65c-1.37-13.9-2.59-18.87-3.89-22.11v-.72h13.54v-25.35h-1.15c-2.3,0-6.34,7.71-7.85,21.6h-.65c-1.37-13.9-2.59-18.87-3.89-22.11v-.72h13.54c0-3.38-.14-6.84-.72-14.4h12.24c-.58,7.56-.72,11.02-.72,14.4h11.95v.72c-1.3,3.24-2.52,8.21-3.89,22.11h-.65c-1.44-13.03-5.04-20.67-7.42-21.53v25.27h11.95v.72c-1.3,3.24-2.52,8.21-3.89,22.11h-.65c-1.44-13.03-5.04-20.67-7.42-21.53v14.47c0,3.24.22,7.06.72,11.67h-12.24c.58-4.61.72-8.42.72-11.67Z"/>
</svg>