<?xml version="1.0" encoding="UTF-8"?>
<svg id="Layer_1" xmlns="http://www.w3.org/2000/svg" version="1.1" viewBox="0 0 1190.55 841.89">
  <!-- Generator: Adobe Illustrator 29.0.1, SVG Export Plug-In . SVG Version: 2.1.0 Build 192)  -->
  <defs>
    <style>
      .st0 {
        fill: #fff;
      }
    </style>
  </defs>
  <path class="st0" d="M49.62,88.34v-18.84c0-3.42-.06-6.12-.6-13.44h10.2c-.54,7.32-.6,10.02-.6,13.44v18.84c0,2.7.18,5.88.6,9.72h-10.2c.48-3.84.6-7.02.6-9.72ZM59.88,72.26c2.04-9.54,6.72-16.74,16.74-16.74l-4.14,14.88h-.6c-1.02-8.64-7.68-9.36-11.28,1.86,10.92,1.62,15.66,9.18,15.66,22.2v3.6h-9.42v-4.44c0-5.1-1.26-17.34-6.78-20.34l-.36-.18.18-.84h0Z"/>
  <path class="st0" d="M102.78,82.64c0,9.72-4.68,16.32-12.06,16.32-6.84,0-12-6.6-12-16.38s5.16-15.42,12-15.42,12.06,6.06,12.06,15.48ZM87.42,95.36c.72,1.26,1.8,2.58,3.3,2.58,1.74,0,2.94-1.32,3.54-2.58.54-1.32.84-4.5.84-12.72s-.3-10.8-.84-12.06c-.6-1.2-1.8-2.4-3.54-2.4-2.04,0-3.24,1.2-3.72,2.4-.42,1.26-.66,4.08-.66,11.88,0,8.34.36,11.58,1.08,12.9Z"/>
  <path class="st0" d="M117.54,68.06h7.74c-.18,2.76-.36,5.58-.36,8.34v2.64c1.26-7.8,5.76-11.88,11.88-11.88l-2.7,9.84h-.6c-.66-5.7-6.18-6.18-7.86,3.96,6.12.78,9.66,3.66,10.98,9.18.48,1.92.78,5.16,1.32,7.92h-8.46c.24-2.16.3-3.12.24-4.68-.3-4.38-1.68-9.84-4.8-11.64v7.98c0,2.76.18,5.58.36,8.34h-7.74c.18-2.76.36-5.58.36-8.34v-7.98c-3.12,1.8-4.5,7.26-4.8,11.64-.06,1.56,0,2.52.24,4.68h-8.46c.54-2.76.84-6,1.32-7.92,1.32-5.52,4.86-8.4,10.98-9.18-1.68-10.14-7.2-9.66-7.86-3.96h-.6l-2.7-9.84c6.12,0,10.62,4.08,11.88,11.88v-2.64c0-2.76-.18-5.58-.36-8.34Z"/>
  <path class="st0" d="M145.8,71.48c.84-1.8.12-2.7-2.1-2.82v-.6h11.46v.6c-1.86.06-2.34,1.32-1.32,4.02l5.46,21.9c.42,1.38.84,2.64,1.2,3.48h-8.34c.18-2.52-.06-3.18-.84-6.6l-.54-2.22c-3.18,7.2-6.54,10.56-8.82,9.18-2.52-1.56-2.22-8.64-1.08-13.92.9-4.02,2.64-8.7,4.92-13.02h0ZM141.72,85.1c-.96,4.5.78,9,3,9.3,1.8.3,3.12-1.02,5.64-6.54l-3.78-15.66c-2.34,4.44-3.96,8.64-4.86,12.9Z"/>
  <path class="st0" d="M187.68,69.08v13.26c2.34-.24,3.72-1.26,4.74-4.92h.6c-.36,2.4-.3,8.7,0,11.04h-.6c-1.02-3.6-2.4-4.62-4.74-4.86v13.44h.18c4.2,0,6.78-2.58,7.74-8.4h.6c.18,2.4.48,4.92,1.38,8.4v1.02h-17.88c.18-3,.36-6.06.36-9v-12c0-2.94-.18-6-.36-9h17.88v1.02c-.9,3.48-1.2,6-1.38,8.4h-.6c-.96-5.82-3.54-8.4-7.74-8.4h-.18Z"/>
  <path class="st0" d="M214.98,71.66c-1.92-2.58-3.54-2.58-4.44-2.58h-.48v20.64c0,2.76.18,5.58.36,8.34h-7.74c.18-2.76.36-5.58.36-8.34v-13.32c0-2.76-.18-5.58-.36-8.34h16.98v1.02l-1.32,10.92h-.6c-.9-3.54-1.32-6.36-2.76-8.34h0Z"/>
  <path class="st0" d="M245.82,82.64c0,9.72-4.68,16.32-12.06,16.32-6.84,0-12-6.6-12-16.38s5.16-15.42,12-15.42,12.06,6.06,12.06,15.48ZM230.46,95.36c.72,1.26,1.8,2.58,3.3,2.58,1.74,0,2.94-1.32,3.54-2.58.54-1.32.84-4.5.84-12.72s-.3-10.8-.84-12.06c-.6-1.2-1.8-2.4-3.54-2.4-2.04,0-3.24,1.2-3.72,2.4-.42,1.26-.66,4.08-.66,11.88,0,8.34.36,11.58,1.08,12.9Z"/>
  <path class="st0" d="M287.46,98.06h-21.24c.18-3,.36-6.06.36-9v-12c0-2.94-.18-6-.36-9h20.1v.6c-1.38,2.1-2.16,4.56-2.82,7.32h-.6c-.9-3.66-2.76-5.28-4.68-6.24-1.14-.54-2.7-.66-4.02-.66v13.56h.3c5.4.24,12.9,1.68,12.96,15.42ZM279.9,97.04c-.12-11.46-1.92-12.84-5.7-13.32v13.32h5.7Z"/>
  <path class="st0" d="M293.22,89.72v-13.32c0-2.76-.18-5.58-.36-8.34h7.74c-.18,2.76-.36,5.58-.36,8.34v6.24h.9c5.4.24,12.9,1.68,12.96,15.42h-21.24c.18-2.76.36-5.58.36-8.34h0ZM306.54,97.04c-.12-12.06-2.1-12.96-6.3-13.38v13.38h6.3ZM317.88,68.06h7.74c-.18,2.76-.36,5.58-.36,8.34v13.32c0,2.76.18,5.58.36,8.34h-7.74c.18-2.76.36-5.58.36-8.34v-13.32c0-2.76-.18-5.58-.36-8.34Z"/>
  <path class="st0" d="M351.42,98.06h-7.86l-5.16-25.56-3.6,16.92c-.96,4.38-.78,7.14,1.68,8.16v.48h-6.36v-.48c.96-.18,2.52-2.88,3.66-8.16l3.84-17.64c.36-1.68-.9-2.76-3.84-3.12v-.6h16.08v.6c-2.76.36-3.96,1.44-3.6,3.12l5.16,25.8s0,.48,0,.48Z"/>
  <path class="st0" d="M359.88,71.48c.84-1.8.12-2.7-2.1-2.82v-.6h11.46v.6c-1.86.06-2.34,1.32-1.32,4.02l5.46,21.9c.42,1.38.84,2.64,1.2,3.48h-8.34c.18-2.52-.06-3.18-.84-6.6l-.54-2.22c-3.18,7.2-6.54,10.56-8.82,9.18-2.52-1.56-2.22-8.64-1.08-13.92.9-4.02,2.64-8.7,4.92-13.02ZM355.8,85.1c-.96,4.5.78,9,3,9.3,1.8.3,3.12-1.02,5.64-6.54l-3.78-15.66c-2.34,4.44-3.96,8.64-4.86,12.9h0Z"/>
  <path class="st0" d="M416.04,82.64c0,9.72-4.68,16.32-12.06,16.32-6.84,0-12-6.6-12-16.38s5.16-15.42,12-15.42,12.06,6.06,12.06,15.48ZM400.68,95.36c.72,1.26,1.8,2.58,3.3,2.58,1.74,0,2.94-1.32,3.54-2.58.54-1.32.84-4.5.84-12.72s-.3-10.8-.84-12.06c-.6-1.2-1.8-2.4-3.54-2.4-2.04,0-3.24,1.2-3.72,2.4-.42,1.26-.66,4.08-.66,11.88,0,8.34.36,11.58,1.08,12.9h0Z"/>
  <path class="st0" d="M428.94,80.36c-5.82-1.26-8.7-5.4-9.3-12.3h9.9v.54c-4.08,3.3-3.9,11.58,2.88,11.58s6.96-8.28,2.88-11.58v-.54h9.9c-.6,6.9-3.48,11.04-9.24,12.3v9.36c0,2.76.18,5.58.36,8.34h-7.74c.18-2.76.36-5.58.36-8.34v-9.36Z"/>
  <path class="st0" d="M458.58,69.08v13.26c2.34-.24,3.72-1.26,4.74-4.92h.6c-.36,2.4-.3,8.7,0,11.04h-.6c-1.02-3.6-2.4-4.62-4.74-4.86v13.44h.18c4.2,0,6.78-2.58,7.74-8.4h.6c.18,2.4.48,4.92,1.38,8.4v1.02h-17.88c.18-3,.36-6.06.36-9v-12c0-2.94-.18-6-.36-9h17.88v1.02c-.9,3.48-1.2,6-1.38,8.4h-.6c-.96-5.82-3.54-8.4-7.74-8.4h-.18Z"/>
  <path class="st0" d="M473.58,68.06h7.98v12.3h5.82v-12.3h7.98c-.18,3-.36,6.06-.36,9v12c0,2.94.18,6,.36,9h-7.98v-16.68h-5.82v16.68h-7.98c.18-3,.36-6.06.36-9v-12c0-2.94-.18-6-.36-9Z"/>
  <path class="st0" d="M523.79,98.06h-21.24c.18-2.76.36-5.58.36-8.34v-13.32c0-2.76-.18-5.58-.36-8.34h7.74c-.18,2.76-.36,5.58-.36,8.34v6.24h.9c5.4.24,12.9,1.68,12.96,15.42ZM516.23,97.04c-.12-12.06-2.1-12.96-6.3-13.38v13.38h6.3Z"/>
  <path class="st0" d="M565.43,98.06h-21.24c.18-3,.36-6.06.36-9v-12c0-2.94-.18-6-.36-9h20.1v.6c-1.38,2.1-2.16,4.56-2.82,7.32h-.6c-.9-3.66-2.76-5.28-4.68-6.24-1.14-.54-2.7-.66-4.02-.66v13.56h.3c5.4.24,12.9,1.68,12.96,15.42ZM557.87,97.04c-.12-11.46-1.92-12.84-5.7-13.32v13.32h5.7Z"/>
  <path class="st0" d="M589.43,98.06h-7.86l-5.16-25.56-3.6,16.92c-.96,4.38-.78,7.14,1.68,8.16v.48h-6.36v-.48c.96-.18,2.52-2.88,3.66-8.16l3.84-17.64c.36-1.68-.9-2.76-3.84-3.12v-.6h16.08v.6c-2.76.36-3.96,1.44-3.6,3.12l5.16,25.8v.48h0Z"/>
  <path class="st0" d="M601.91,69.08v13.26c2.34-.24,3.72-1.26,4.74-4.92h.6c-.36,2.4-.3,8.7,0,11.04h-.6c-1.02-3.6-2.4-4.62-4.74-4.86v13.44h.18c4.2,0,6.78-2.58,7.74-8.4h.6c.18,2.4.48,4.92,1.38,8.4v1.02h-17.88c.18-3,.36-6.06.36-9v-12c0-2.94-.18-6-.36-9h17.88v1.02c-.9,3.48-1.2,6-1.38,8.4h-.6c-.96-5.82-3.54-8.4-7.74-8.4h-.18Z"/>
  <path class="st0" d="M613.91,97.04h4.98l4.26-24.54c.36-1.92-.42-3.06-3-3.84v-.6h14.34v.6c-2.58.78-3.6,1.92-3.36,3.84l3.18,24.54h4.8v1.02l-5.28,12.48h-.6l-.06-12.48h-13.62v12.54h-.6l-5.04-12.54v-1.02h0ZM624.65,72.5h-.48l-4.26,24.54h7.5l-2.76-24.54Z"/>
  <path class="st0" d="M643.31,68.06h7.98v12.3h5.82v-12.3h7.98c-.18,3-.36,6.06-.36,9v12c0,2.94.18,6,.36,9h-7.98v-16.68h-5.82v16.68h-7.98c.18-3,.36-6.06.36-9v-12c0-2.94-.18-6-.36-9Z"/>
  <path class="st0" d="M676.25,71.48c.84-1.8.12-2.7-2.1-2.82v-.6h11.46v.6c-1.86.06-2.34,1.32-1.32,4.02l5.46,21.9c.42,1.38.84,2.64,1.2,3.48h-8.34c.18-2.52-.06-3.18-.84-6.6l-.54-2.22c-3.18,7.2-6.54,10.56-8.82,9.18-2.52-1.56-2.22-8.64-1.08-13.92.9-4.02,2.64-8.7,4.92-13.02ZM672.17,85.1c-.96,4.5.78,9,3,9.3,1.8.3,3.12-1.02,5.64-6.54l-3.78-15.66c-2.34,4.44-3.96,8.64-4.86,12.9Z"/>
  <path class="st0" d="M702.53,98.06h-7.38c.18-7.32,1.44-14.64,8.88-16.62-5.04-.66-8.7-2.64-8.82-6.9-.12-4.68,3.12-7.38,9.78-7.38,5.04,0,10.44,4.02,10.44,14.7v7.8c0,2.76.18,5.58.36,8.34h-7.74c.18-2.76.36-5.58.36-8.34v-7.98c-3.6,1.8-6.3,5.46-5.88,16.38ZM708.41,80.9v-5.76c0-4.68-1.62-7.08-3.42-7.08-2.28,0-3.66,1.56-3.54,5.88.12,4.68,4.14,6.96,6.96,6.96h0Z"/>
  <path class="st0" d="M49.62,160.34v-18.84c0-3.42-.06-6.12-.6-13.44h10.2c-.54,7.32-.6,10.02-.6,13.44v18.84c0,2.7.18,5.88.6,9.72h-10.2c.48-3.84.6-7.02.6-9.72ZM59.88,144.26c2.04-9.54,6.72-16.74,16.74-16.74l-4.14,14.88h-.6c-1.02-8.64-7.68-9.36-11.28,1.86,10.92,1.62,15.66,9.18,15.66,22.2v3.6h-9.42v-4.44c0-5.1-1.26-17.34-6.78-20.34l-.36-.18.18-.84h0Z"/>
  <path class="st0" d="M78.72,149.12c0-12.36,5.82-21.96,14.94-21.96s15,9.6,15,21.96-5.88,21.84-15,21.84-14.94-9.6-14.94-21.84ZM89.4,167.18c.72,1.86,2.1,2.82,4.26,2.82s3.66-.96,4.32-2.82c.78-1.92,1.14-7.98,1.14-18.06s-.36-16.26-1.14-18.06c-.66-1.98-2.1-2.94-4.32-2.94s-3.54.96-4.26,2.94c-.84,1.8-1.08,7.86-1.08,18.06s.24,16.14,1.08,18.06Z"/>
  <path class="st0" d="M127.2,160.34v-15.06c-6.42,1.74-6.78,14.58-6.78,20.34v4.44h-9.18v-3.6c0-13.02,4.5-20.58,15.42-22.2-3.6-11.22-10.26-10.5-11.28-1.86h-.6l-4.14-15.24c9.72,0,14.46,7.14,16.56,16.32v-1.98c0-3.42-.06-6.12-.6-13.44h10.2c-.54,7.32-.6,10.02-.6,13.44v1.98c2.1-9.18,6.84-16.32,16.56-16.32l-4.14,15.24h-.6c-1.02-8.64-7.68-9.36-11.28,1.86,10.92,1.62,15.42,9.18,15.42,22.2v3.6h-9.18v-4.44c0-5.76-.36-18.6-6.78-20.34v15.06c0,2.7.18,5.88.6,9.72h-10.2c.48-3.84.6-7.02.6-9.72Z"/>
  <path class="st0" d="M163.62,133.22c1.26-2.7.18-4.14-3.24-4.32v-.84h15.12v.72c-2.82.06-3.54,2.16-2.04,6.3l7.32,24.72.06.36,2.94,9.9h-9.96c-.36-3.78-.66-4.86-1.86-10.02l-.84-3.36c-4.86,10.92-9.9,16.02-13.32,13.92-3.9-2.4-3.54-9.66-1.8-17.64,1.38-6.12,4.08-13.14,7.62-19.74h0ZM156.96,153.92c-1.44,6.78,1.62,10.14,4.98,10.62,2.7.42,4.92-.84,8.76-9.18l-6.3-21.48c-3.54,6.72-6.06,13.5-7.44,20.04h0Z"/>
  <path class="st0" d="M203.58,160.34v-18.84c0-3.42-.06-6.12-.6-13.44h10.2c-.54,7.32-.6,10.02-.6,13.44v18.84c0,2.7.18,5.88.6,9.72h-10.2c.48-3.84.6-7.02.6-9.72ZM214.92,135.08c4.14-4.56,11.22-6.84,17.88-6.84v11.82h-.6c-4.5-7.62-12.72-8.76-17.28-4.08,12.18,4.56,18.42,16.38,18.96,29.58.12,1.38.36,2.94.6,4.5h-11.64c.54-3.66.54-7.38.48-9.42-.84-12.78-3.66-20.76-8.4-23.82l-1.02-.66,1.02-1.08h0Z"/>
  <path class="st0" d="M236.58,149.12c0-12.36,5.82-21.96,14.94-21.96s15,9.6,15,21.96-5.88,21.84-15,21.84-14.94-9.6-14.94-21.84h0ZM247.26,167.18c.72,1.86,2.1,2.82,4.26,2.82s3.66-.96,4.32-2.82c.78-1.92,1.14-7.98,1.14-18.06s-.36-16.26-1.14-18.06c-.66-1.98-2.1-2.94-4.32-2.94s-3.54.96-4.26,2.94c-.84,1.8-1.08,7.86-1.08,18.06s.24,16.14,1.08,18.06h0Z"/>
  <path class="st0" d="M288.24,160.34v-18.84c0-1.56,0-2.94-.06-4.68-4.74,3.12-7.56,11.04-8.4,23.82-.06,2.04-.06,5.76.48,9.42h-11.64c.24-1.56.48-3.12.6-4.5.54-13.2,6.78-24.96,18.9-29.58v-.06c-4.56-4.62-12.72-3.48-17.22,4.14h-.6v-11.82c6.6,0,13.62,2.22,17.76,6.72-.06-1.8-.18-3.96-.42-6.9h10.2c-.24,2.88-.36,5.04-.42,6.78,4.14-4.38,11.1-6.6,17.64-6.6v11.82h-.6c-4.44-7.5-12.54-8.7-17.1-4.26v.24c12.06,4.62,18.24,16.38,18.78,29.52.12,1.38.36,2.94.6,4.5h-11.64c.54-3.66.54-7.38.48-9.42-.84-12.66-3.6-20.58-8.28-23.76-.06,1.74-.06,3.12-.06,4.62v18.84c0,2.7.18,5.88.6,9.72h-10.2c.48-3.84.6-7.02.6-9.72h0Z"/>
  <path class="st0" d="M327.72,133.22c1.26-2.7.18-4.14-3.24-4.32v-.84h15.12v.72c-2.82.06-3.54,2.16-2.04,6.3l7.32,24.72.06.36,2.94,9.9h-9.96c-.36-3.78-.66-4.86-1.86-10.02l-.84-3.36c-4.86,10.92-9.9,16.02-13.32,13.92-3.9-2.4-3.54-9.66-1.8-17.64,1.38-6.12,4.08-13.14,7.62-19.74h0ZM321.06,153.92c-1.44,6.78,1.62,10.14,4.98,10.62,2.7.42,4.92-.84,8.76-9.18l-6.3-21.48c-3.54,6.72-6.06,13.5-7.44,20.04h0Z"/>
  <path class="st0" d="M62.16,232.34v-15.06c-6.42,1.74-6.78,14.58-6.78,20.34v4.44h-9.18v-3.6c0-13.02,4.5-20.58,15.42-22.2-3.6-11.22-10.26-10.5-11.28-1.86h-.6l-4.14-15.24c9.72,0,14.46,7.14,16.56,16.32v-1.98c0-3.42-.06-6.12-.6-13.44h10.2c-.54,7.32-.6,10.02-.6,13.44v1.98c2.1-9.18,6.84-16.32,16.56-16.32l-4.14,15.24h-.6c-1.02-8.64-7.68-9.36-11.28,1.86,10.92,1.62,15.42,9.18,15.42,22.2v3.6h-9.18v-4.44c0-5.76-.36-18.6-6.78-20.34v15.06c0,2.7.18,5.88.6,9.72h-10.2c.48-3.84.6-7.02.6-9.72h0Z"/>
  <path class="st0" d="M103.38,242.06h-9.06c.3-2.76.24-4.2-.18-6.42l-2.28-11.76c-.06-.24-.06-.48-.12-.72l-1.2-6.18c-.36-1.38-.78-2.94-1.44-4.92h8.1c.24,3.42,1.38,9.3,1.62,10.74l2.52,13.5.54,2.58c.3,1.38.78,1.68,1.5,1.74,0-10.2,1.02-20.16,3.06-23.82,1.98-3.6,4.56-5.46,7.8-5.46l-2.58,10.2c-2.22-4.26-5.82-2.58-6.78,9.42-.6,7.44-.72,14.82,1.44,24.24h-2.04c-.66-3.6-.9-10.38-.9-13.14h0Z"/>
  <path class="st0" d="M118.14,212.06h7.74c-.18,2.76-.36,5.58-.36,8.34v13.32c0,2.76.18,5.58.36,8.34h-7.74c.18-2.76.36-5.58.36-8.34v-13.32c0-2.76-.18-5.58-.36-8.34ZM126.36,225.02c.78-9.12,5.52-13.86,12.12-13.86l-2.7,9.84h-.6c-.66-5.7-6.18-6.18-7.86,3.96,6.12.78,9.66,3.66,10.98,9.18.48,1.92.78,5.16,1.32,7.92h-8.46c.24-2.16.3-3.12.24-4.68-.3-4.44-1.68-9.96-4.92-11.7l-.24-.12.12-.54h0Z"/>
  <path class="st0" d="M204.84,232.34v-18.84c0-1.56,0-2.94-.06-4.68-4.74,3.12-7.56,11.04-8.4,23.82-.06,2.04-.06,5.76.48,9.42h-11.64c.24-1.56.48-3.12.6-4.5.54-13.2,6.78-24.96,18.9-29.58v-.06c-4.56-4.62-12.72-3.48-17.22,4.14h-.6v-11.82c6.6,0,13.62,2.22,17.76,6.72-.06-1.8-.18-3.96-.42-6.9h10.2c-.24,2.88-.36,5.04-.42,6.78,4.14-4.38,11.1-6.6,17.64-6.6v11.82h-.6c-4.44-7.5-12.54-8.7-17.1-4.26v.24c12.06,4.62,18.24,16.38,18.78,29.52.12,1.38.36,2.94.6,4.5h-11.64c.54-3.66.54-7.38.48-9.42-.84-12.66-3.6-20.58-8.28-23.76-.06,1.74-.06,3.12-.06,4.62v18.84c0,2.7.18,5.88.6,9.72h-10.2c.48-3.84.6-7.02.6-9.72h0Z"/>
  <path class="st0" d="M249.12,242.06h-9.06c.3-2.76.24-4.2-.18-6.42l-2.28-11.76c-.06-.24-.06-.48-.12-.72l-1.2-6.18c-.36-1.38-.78-2.94-1.44-4.92h8.1c.24,3.42,1.38,9.3,1.62,10.74l2.52,13.5.54,2.58c.3,1.38.78,1.68,1.5,1.74,0-10.2,1.02-20.16,3.06-23.82,1.98-3.6,4.56-5.46,7.8-5.46l-2.58,10.2c-2.22-4.26-5.82-2.58-6.78,9.42-.6,7.44-.72,14.82,1.44,24.24h-2.04c-.66-3.6-.9-10.38-.9-13.14h0Z"/>
  <path class="st0" d="M263.1,212.06h7.74c-.18,2.76-.36,5.58-.36,8.34v13.32c0,2.76.18,5.58.36,8.34h-7.74c.18-2.76.36-5.58.36-8.34v-13.32c0-2.76-.18-5.58-.36-8.34ZM272.4,218.18c2.76-6,6.3-6.96,10.86-6.72v7.44c-3.96-3.66-8.1-3.66-10.26.12,11.04,4.2,13.44,11.22,13.62,23.04h-7.98c0-12.42.12-19.2-5.76-22.14l-1.08-.42.6-1.32h0Z"/>
  <path class="st0" d="M49.62,304.34v-18.84c0-3.42-.06-6.12-.6-13.44h10.2c-.54,7.32-.6,10.02-.6,13.44v18.84c0,2.7.18,5.88.6,9.72h-10.2c.48-3.84.6-7.02.6-9.72ZM59.88,288.26c2.04-9.54,6.72-16.74,16.74-16.74l-4.14,14.88h-.6c-1.02-8.64-7.68-9.36-11.28,1.86,10.92,1.62,15.66,9.18,15.66,22.2v3.6h-9.42v-4.44c0-5.1-1.26-17.34-6.78-20.34l-.36-.18.18-.84h0Z"/>
  <path class="st0" d="M92.4,314.06h-9.06c.3-2.76.24-4.2-.18-6.42l-2.28-11.76c-.06-.24-.06-.48-.12-.72l-1.2-6.18c-.36-1.38-.78-2.94-1.44-4.92h8.1c.24,3.42,1.38,9.3,1.62,10.74l2.52,13.5.54,2.58c.3,1.38.78,1.68,1.5,1.74,0-10.2,1.02-20.16,3.06-23.82,1.98-3.6,4.56-5.46,7.8-5.46l-2.58,10.2c-2.22-4.26-5.82-2.58-6.78,9.42-.6,7.44-.72,14.82,1.44,24.24h-2.04c-.66-3.6-.9-10.38-.9-13.14h0Z"/>
  <path class="st0" d="M105.72,305.78v-7.8c0-8.76,3.36-14.82,10.44-14.82,5.04,0,9.78,2.22,9.78,8.1,0,5.34-6.06,8.34-13.2,8.34v6.18c0,2.76.18,5.58.36,8.34h-7.74c.18-2.76.36-5.58.36-8.34ZM116.16,284.18c-2.22,0-3.42,2.04-3.42,7.08v7.56c2.76,0,6.96-.84,6.96-7.62,0-5.04-1.26-7.02-3.54-7.02Z"/>
  <path class="st0" d="M135.3,287.48c.84-1.8.12-2.7-2.1-2.82v-.6h11.46v.6c-1.86.06-2.34,1.32-1.32,4.02l5.46,21.9c.42,1.38.84,2.64,1.2,3.48h-8.34c.18-2.52-.06-3.18-.84-6.6l-.54-2.22c-3.18,7.2-6.54,10.56-8.82,9.18-2.52-1.56-2.22-8.64-1.08-13.92.9-4.02,2.64-8.7,4.92-13.02h0ZM131.22,301.1c-.96,4.5.78,9,3,9.3,1.8.3,3.12-1.02,5.64-6.54l-3.78-15.66c-2.34,4.44-3.96,8.64-4.86,12.9h0Z"/>
  <path class="st0" d="M163.56,284.06h7.74c-.18,2.76-.36,5.58-.36,8.34v2.64c1.26-7.8,5.76-11.88,11.88-11.88l-2.7,9.84h-.6c-.66-5.7-6.18-6.18-7.86,3.96,6.12.78,9.66,3.66,10.98,9.18.48,1.92.78,5.16,1.32,7.92h-8.46c.24-2.16.3-3.12.24-4.68-.3-4.38-1.68-9.84-4.8-11.64v7.98c0,2.76.18,5.58.36,8.34h-7.74c.18-2.76.36-5.58.36-8.34v-7.98c-3.12,1.8-4.5,7.26-4.8,11.64-.06,1.56,0,2.52.24,4.68h-8.46c.54-2.76.84-6,1.32-7.92,1.32-5.52,4.86-8.4,10.98-9.18-1.68-10.14-7.2-9.66-7.86-3.96h-.6l-2.7-9.84c6.12,0,10.62,4.08,11.88,11.88v-2.64c0-2.76-.18-5.58-.36-8.34Z"/>
  <path class="st0" d="M203.46,304.34v-18.84c0-3.42-.06-6.12-.6-13.44h10.2c-.54,7.32-.6,10.02-.6,13.44v18.84c0,2.7.18,5.88.6,9.72h-10.2c.48-3.84.6-7.02.6-9.72ZM214.8,279.08c4.14-4.56,11.22-6.84,17.88-6.84v11.82h-.6c-4.5-7.62-12.72-8.76-17.28-4.08,12.18,4.56,18.42,16.38,18.96,29.58.12,1.38.36,2.94.6,4.5h-11.64c.54-3.66.54-7.38.48-9.42-.84-12.78-3.66-20.76-8.4-23.82l-1.02-.66,1.02-1.08h0Z"/>
  <path class="st0" d="M250.14,314.06h-9.06c.3-2.76.24-4.2-.18-6.42l-2.28-11.76c-.06-.24-.06-.48-.12-.72l-1.2-6.18c-.36-1.38-.78-2.94-1.44-4.92h8.1c.24,3.42,1.38,9.3,1.62,10.74l2.52,13.5.54,2.58c.3,1.38.78,1.68,1.5,1.74,0-10.2,1.02-20.16,3.06-23.82,1.98-3.6,4.56-5.46,7.8-5.46l-2.58,10.2c-2.22-4.26-5.82-2.58-6.78,9.42-.6,7.44-.72,14.82,1.44,24.24h-2.04c-.66-3.6-.9-10.38-.9-13.14h0Z"/>
  <path class="st0" d="M263.46,305.78v-7.8c0-8.76,3.36-14.82,10.44-14.82,5.04,0,9.78,2.22,9.78,8.1,0,5.34-6.06,8.34-13.2,8.34v6.18c0,2.76.18,5.58.36,8.34h-7.74c.18-2.76.36-5.58.36-8.34h0ZM273.9,284.18c-2.22,0-3.42,2.04-3.42,7.08v7.56c2.76,0,6.96-.84,6.96-7.62,0-5.04-1.26-7.02-3.54-7.02h0Z"/>
  <path class="st0" d="M293.04,287.48c.84-1.8.12-2.7-2.1-2.82v-.6h11.46v.6c-1.86.06-2.34,1.32-1.32,4.02l5.46,21.9c.42,1.38.84,2.64,1.2,3.48h-8.34c.18-2.52-.06-3.18-.84-6.6l-.54-2.22c-3.18,7.2-6.54,10.56-8.82,9.18-2.52-1.56-2.22-8.64-1.08-13.92.9-4.02,2.64-8.7,4.92-13.02h0ZM288.96,301.1c-.96,4.5.78,9,3,9.3,1.8.3,3.12-1.02,5.64-6.54l-3.78-15.66c-2.34,4.44-3.96,8.64-4.86,12.9h0Z"/>
  <path class="st0" d="M332.34,291.92l-.3-.12v13.92c0,2.76.18,5.58.36,8.34h-7.74c.18-2.76.36-5.58.36-8.34v-13.92l-.24.12c-5.88,2.94-5.76,9.72-5.76,22.14h-7.98c.18-11.82,2.58-18.84,13.62-23.04-2.16-3.78-6.3-3.78-10.26-.12v-7.44c4.38-.24,7.86.66,10.56,6.12-.06-1.86-.18-3.72-.3-5.52h7.74c-.12,1.86-.24,3.78-.3,5.64,2.7-5.58,6.18-6.48,10.62-6.24v7.44c-3.96-3.66-8.1-3.66-10.26.12,11.04,4.2,13.44,11.22,13.62,23.04h-7.98c0-12.42.12-19.2-5.76-22.14h0Z"/>
  <path class="st0" d="M49.62,376.34v-18.84c0-3.42-.06-6.12-.6-13.44h10.2c-.54,7.32-.6,10.02-.6,13.44v18.84c0,2.7.18,5.88.6,9.72h-10.2c.48-3.84.6-7.02.6-9.72ZM59.88,360.26c2.04-9.54,6.72-16.74,16.74-16.74l-4.14,14.88h-.6c-1.02-8.64-7.68-9.36-11.28,1.86,10.92,1.62,15.66,9.18,15.66,22.2v3.6h-9.42v-4.44c0-5.1-1.26-17.34-6.78-20.34l-.36-.18.18-.84h0Z"/>
  <path class="st0" d="M92.4,386.06h-9.06c.3-2.76.24-4.2-.18-6.42l-2.28-11.76c-.06-.24-.06-.48-.12-.72l-1.2-6.18c-.36-1.38-.78-2.94-1.44-4.92h8.1c.24,3.42,1.38,9.3,1.62,10.74l2.52,13.5.54,2.58c.3,1.38.78,1.68,1.5,1.74,0-10.2,1.02-20.16,3.06-23.82,1.98-3.6,4.56-5.46,7.8-5.46l-2.58,10.2c-2.22-4.26-5.82-2.58-6.78,9.42-.6,7.44-.72,14.82,1.44,24.24h-2.04c-.66-3.6-.9-10.38-.9-13.14h0Z"/>
  <path class="st0" d="M111.9,369.56l.54,12.9c.12,2.7-1.74,17.94-2.94,24.78h-.54c-1.68-6.84-3.42-20.22-4.68-34.92-.6-7.26,2.7-12.96,7.62-16.98,9,5.76,13.92,12.24,13.92,19.56,0,5.94-3.6,9.48-8.04,11.88-.54.24-2.28-1.56-5.34-5.28,2.82,2.94,4.44,4.26,5.04,3.84.54-.36.84-5.04.84-14.1,0-6.48-.78-10.56-2.28-12.18-2.94,3.18-4.32,6.6-4.14,10.5Z"/>
  <path class="st0" d="M134.7,359.48c.84-1.8.12-2.7-2.1-2.82v-.6h11.46v.6c-1.86.06-2.34,1.32-1.32,4.02l5.46,21.9c.42,1.38.84,2.64,1.2,3.48h-8.34c.18-2.52-.06-3.18-.84-6.6l-.54-2.22c-3.18,7.2-6.54,10.56-8.82,9.18-2.52-1.56-2.22-8.64-1.08-13.92.9-4.02,2.64-8.7,4.92-13.02h0ZM130.62,373.1c-.96,4.5.78,9,3,9.3,1.8.3,3.12-1.02,5.64-6.54l-3.78-15.66c-2.34,4.44-3.96,8.64-4.86,12.9h0Z"/>
  <path class="st0" d="M162.96,356.06h7.74c-.18,2.76-.36,5.58-.36,8.34v2.64c1.26-7.8,5.76-11.88,11.88-11.88l-2.7,9.84h-.6c-.66-5.7-6.18-6.18-7.86,3.96,6.12.78,9.66,3.66,10.98,9.18.48,1.92.78,5.16,1.32,7.92h-8.46c.24-2.16.3-3.12.24-4.68-.3-4.38-1.68-9.84-4.8-11.64v7.98c0,2.76.18,5.58.36,8.34h-7.74c.18-2.76.36-5.58.36-8.34v-7.98c-3.12,1.8-4.5,7.26-4.8,11.64-.06,1.56,0,2.52.24,4.68h-8.46c.54-2.76.84-6,1.32-7.92,1.32-5.52,4.86-8.4,10.98-9.18-1.68-10.14-7.2-9.66-7.86-3.96h-.6l-2.7-9.84c6.12,0,10.62,4.08,11.88,11.88v-2.64c0-2.76-.18-5.58-.36-8.34Z"/>
  <path class="st0" d="M202.86,376.34v-18.84c0-3.42-.06-6.12-.6-13.44h10.2c-.54,7.32-.6,10.02-.6,13.44v18.84c0,2.7.18,5.88.6,9.72h-10.2c.48-3.84.6-7.02.6-9.72ZM214.2,351.08c4.14-4.56,11.22-6.84,17.88-6.84v11.82h-.6c-4.5-7.62-12.72-8.76-17.28-4.08,12.18,4.56,18.42,16.38,18.96,29.58.12,1.38.36,2.94.6,4.5h-11.64c.54-3.66.54-7.38.48-9.42-.84-12.78-3.66-20.76-8.4-23.82l-1.02-.66,1.02-1.08h0Z"/>
  <path class="st0" d="M249.54,386.06h-9.06c.3-2.76.24-4.2-.18-6.42l-2.28-11.76c-.06-.24-.06-.48-.12-.72l-1.2-6.18c-.36-1.38-.78-2.94-1.44-4.92h8.1c.24,3.42,1.38,9.3,1.62,10.74l2.52,13.5.54,2.58c.3,1.38.78,1.68,1.5,1.74,0-10.2,1.02-20.16,3.06-23.82,1.98-3.6,4.56-5.46,7.8-5.46l-2.58,10.2c-2.22-4.26-5.82-2.58-6.78,9.42-.6,7.44-.72,14.82,1.44,24.24h-2.04c-.66-3.6-.9-10.38-.9-13.14h0Z"/>
  <path class="st0" d="M269.04,369.56l.54,12.9c.12,2.7-1.74,17.94-2.94,24.78h-.54c-1.68-6.84-3.42-20.22-4.68-34.92-.6-7.26,2.7-12.96,7.62-16.98,9,5.76,13.92,12.24,13.92,19.56,0,5.94-3.6,9.48-8.04,11.88-.54.24-2.28-1.56-5.34-5.28,2.82,2.94,4.44,4.26,5.04,3.84.54-.36.84-5.04.84-14.1,0-6.48-.78-10.56-2.28-12.18-2.94,3.18-4.32,6.6-4.14,10.5Z"/>
  <path class="st0" d="M291.84,359.48c.84-1.8.12-2.7-2.1-2.82v-.6h11.46v.6c-1.86.06-2.34,1.32-1.32,4.02l5.46,21.9c.42,1.38.84,2.64,1.2,3.48h-8.34c.18-2.52-.06-3.18-.84-6.6l-.54-2.22c-3.18,7.2-6.54,10.56-8.82,9.18-2.52-1.56-2.22-8.64-1.08-13.92.9-4.02,2.64-8.7,4.92-13.02h0ZM287.76,373.1c-.96,4.5.78,9,3,9.3,1.8.3,3.12-1.02,5.64-6.54l-3.78-15.66c-2.34,4.44-3.96,8.64-4.86,12.9h0Z"/>
  <path class="st0" d="M331.13,363.92l-.3-.12v13.92c0,2.76.18,5.58.36,8.34h-7.74c.18-2.76.36-5.58.36-8.34v-13.92l-.24.12c-5.88,2.94-5.76,9.72-5.76,22.14h-7.98c.18-11.82,2.58-18.84,13.62-23.04-2.16-3.78-6.3-3.78-10.26-.12v-7.44c4.38-.24,7.86.66,10.56,6.12-.06-1.86-.18-3.72-.3-5.52h7.74c-.12,1.86-.24,3.78-.3,5.64,2.7-5.58,6.18-6.48,10.62-6.24v7.44c-3.96-3.66-8.1-3.66-10.26.12,11.04,4.2,13.44,11.22,13.62,23.04h-7.98c0-12.42.12-19.2-5.76-22.14h0Z"/>
  <path class="st0" d="M49.62,448.34v-18.84c0-3.42-.06-6.12-.6-13.44h10.2c-.54,7.32-.6,10.02-.6,13.44v18.84c0,2.7.18,5.88.6,9.72h-10.2c.48-3.84.6-7.02.6-9.72ZM59.88,432.26c2.04-9.54,6.72-16.74,16.74-16.74l-4.14,14.88h-.6c-1.02-8.64-7.68-9.36-11.28,1.86,10.92,1.62,15.66,9.18,15.66,22.2v3.6h-9.42v-4.44c0-5.1-1.26-17.34-6.78-20.34l-.36-.18.18-.84h0Z"/>
  <path class="st0" d="M92.4,458.06h-9.06c.3-2.76.24-4.2-.18-6.42l-2.28-11.76c-.06-.24-.06-.48-.12-.72l-1.2-6.18c-.36-1.38-.78-2.94-1.44-4.92h8.1c.24,3.42,1.38,9.3,1.62,10.74l2.52,13.5.54,2.58c.3,1.38.78,1.68,1.5,1.74,0-10.2,1.02-20.16,3.06-23.82,1.98-3.6,4.56-5.46,7.8-5.46l-2.58,10.2c-2.22-4.26-5.82-2.58-6.78,9.42-.6,7.44-.72,14.82,1.44,24.24h-2.04c-.66-3.6-.9-10.38-.9-13.14h0Z"/>
  <path class="st0" d="M105.72,449.78v-7.8c0-8.76,3.36-14.82,10.44-14.82,5.04,0,9.78,2.22,9.78,8.1,0,5.34-6.06,8.34-13.2,8.34v6.18c0,2.76.18,5.58.36,8.34h-7.74c.18-2.76.36-5.58.36-8.34ZM116.16,428.18c-2.22,0-3.42,2.04-3.42,7.08v7.56c2.76,0,6.96-.84,6.96-7.62,0-5.04-1.26-7.02-3.54-7.02Z"/>
  <path class="st0" d="M135.3,431.48c.84-1.8.12-2.7-2.1-2.82v-.6h11.46v.6c-1.86.06-2.34,1.32-1.32,4.02l5.46,21.9c.42,1.38.84,2.64,1.2,3.48h-8.34c.18-2.52-.06-3.18-.84-6.6l-.54-2.22c-3.18,7.2-6.54,10.56-8.82,9.18-2.52-1.56-2.22-8.64-1.08-13.92.9-4.02,2.64-8.7,4.92-13.02h0ZM131.22,445.1c-.96,4.5.78,9,3,9.3,1.8.3,3.12-1.02,5.64-6.54l-3.78-15.66c-2.34,4.44-3.96,8.64-4.86,12.9h0Z"/>
  <path class="st0" d="M163.56,428.06h7.74c-.18,2.76-.36,5.58-.36,8.34v2.64c1.26-7.8,5.76-11.88,11.88-11.88l-2.7,9.84h-.6c-.66-5.7-6.18-6.18-7.86,3.96,6.12.78,9.66,3.66,10.98,9.18.48,1.92.78,5.16,1.32,7.92h-8.46c.24-2.16.3-3.12.24-4.68-.3-4.38-1.68-9.84-4.8-11.64v7.98c0,2.76.18,5.58.36,8.34h-7.74c.18-2.76.36-5.58.36-8.34v-7.98c-3.12,1.8-4.5,7.26-4.8,11.64-.06,1.56,0,2.52.24,4.68h-8.46c.54-2.76.84-6,1.32-7.92,1.32-5.52,4.86-8.4,10.98-9.18-1.68-10.14-7.2-9.66-7.86-3.96h-.6l-2.7-9.84c6.12,0,10.62,4.08,11.88,11.88v-2.64c0-2.76-.18-5.58-.36-8.34Z"/>
  <path class="st0" d="M224.1,458.06h-21.24c.18-3,.36-6.06.36-9v-12c0-2.94-.18-6-.36-9h20.1v.6c-1.38,2.1-2.16,4.56-2.82,7.32h-.6c-.9-3.66-2.76-5.28-4.68-6.24-1.14-.54-2.7-.66-4.02-.66v13.56h.3c5.4.24,12.9,1.68,12.96,15.42h0ZM216.54,457.04c-.12-11.46-1.92-12.84-5.7-13.32v13.32h5.7Z"/>
  <path class="st0" d="M251.76,442.64c0,9.72-4.68,16.32-12.06,16.32-6.84,0-12-6.6-12-16.38s5.16-15.42,12-15.42,12.06,6.06,12.06,15.48ZM236.4,455.36c.72,1.26,1.8,2.58,3.3,2.58,1.74,0,2.94-1.32,3.54-2.58.54-1.32.84-4.5.84-12.72s-.3-10.8-.84-12.06c-.6-1.2-1.8-2.4-3.54-2.4-2.04,0-3.24,1.2-3.72,2.4-.42,1.26-.66,4.08-.66,11.88,0,8.34.36,11.58,1.08,12.9Z"/>
  <path class="st0" d="M264.54,458.06h-7.38c.18-7.32,1.44-14.64,8.88-16.62-5.04-.66-8.7-2.64-8.82-6.9-.12-4.68,3.12-7.38,9.78-7.38,5.04,0,10.44,4.02,10.44,14.7v7.8c0,2.76.18,5.58.36,8.34h-7.74c.18-2.76.36-5.58.36-8.34v-7.98c-3.6,1.8-6.3,5.46-5.88,16.38h0ZM270.42,440.9v-5.76c0-4.68-1.62-7.08-3.42-7.08-2.28,0-3.66,1.56-3.54,5.88.12,4.68,4.14,6.96,6.96,6.96h0Z"/>
  <path class="st0" d="M294.3,431.66c-1.92-2.58-3.54-2.58-4.44-2.58h-.48v20.64c0,2.76.18,5.58.36,8.34h-7.74c.18-2.76.36-5.58.36-8.34v-13.32c0-2.76-.18-5.58-.36-8.34h16.98v1.02l-1.32,10.92h-.6c-.9-3.54-1.32-6.36-2.76-8.34h0Z"/>
  <path class="st0" d="M314.76,458.06h-9.06c.3-2.76.24-4.2-.18-6.42l-2.28-11.76c-.06-.24-.06-.48-.12-.72l-1.2-6.18c-.36-1.38-.78-2.94-1.44-4.92h8.1c.24,3.42,1.38,9.3,1.62,10.74l2.52,13.5.54,2.58c.3,1.38.78,1.68,1.5,1.74,0-10.2,1.02-20.16,3.06-23.82,1.98-3.6,4.56-5.46,7.8-5.46l-2.58,10.2c-2.22-4.26-5.82-2.58-6.78,9.42-.6,7.44-.72,14.82,1.44,24.24h-2.04c-.66-3.6-.9-10.38-.9-13.14h0Z"/>
  <path class="st0" d="M343.37,463.34c0-3.6-2.1-5.28-6.24-5.28h-10.02v-.72l13.2-28.26h-3.06c-.9,0-2.52,0-4.44,2.58-1.44,1.98-1.86,4.8-2.76,8.34h-.6l-1.32-10.92v-1.02h19.62v.6l-13.26,28.38h.36c18.48.18,18.96,11.82,1.86,12.18v-.48c4.44-.18,6.66-1.92,6.66-5.4h0Z"/>
  <path class="st0" d="M371.33,458.06h-7.86l-5.16-25.56-3.6,16.92c-.96,4.38-.78,7.14,1.68,8.16v.48h-6.36v-.48c.96-.18,2.52-2.88,3.66-8.16l3.84-17.64c.36-1.68-.9-2.76-3.84-3.12v-.6h16.08v.6c-2.76.36-3.96,1.44-3.6,3.12l5.16,25.8v.48h0Z"/>
  <path class="st0" d="M375.83,428.06h7.98v22.56l5.82-17.7v-4.86h7.98c-.18,3-.36,6.06-.36,9v12c0,2.94.18,6,.36,9h-7.98v-21.9l-5.82,17.76v4.14h-7.98c.18-3,.36-6.06.36-9v-12c0-2.94-.18-6-.36-9h0Z"/>
  <path class="st0" d="M404.81,428.06h19.74v2.88c0,6.84-2.58,10.74-7.74,12.12,4.56,1.02,9.18,4.26,9.24,15h-21.24c.18-3,.36-6.06.36-9v-12c0-2.94-.18-6-.36-9ZM417.89,430.94v-1.86h-5.1v13.5c4.68-.6,5.1-4.5,5.1-11.64ZM418.49,457.04c-.12-11.46-1.92-12.84-5.7-13.32v13.32h5.7Z"/>
  <path class="st0" d="M431.45,428.06h7.98v22.56l5.82-17.7v-4.86h7.98c-.18,3-.36,6.06-.36,9v12c0,2.94.18,6,.36,9h-7.98v-21.9l-5.82,17.76v4.14h-7.98c.18-3,.36-6.06.36-9v-12c0-2.94-.18-6-.36-9h0Z"/>
  <path class="st0" d="M460.43,428.06h7.98v22.56l5.82-17.7v-4.86h7.98c-.18,3-.36,6.06-.36,9v12c0,2.94.18,6,.36,9h-7.98v-21.9l-5.82,17.76v4.14h-7.98c.18-3,.36-6.06.36-9v-12c0-2.94-.18-6-.36-9h0ZM468.05,422.54c0,3,1.44,3.42,3.18,3.42,1.62,0,3-.66,3-3.66h4.62c-1.14,3.48-4.32,4.68-7.62,4.68-3.54,0-6.78-.96-7.98-4.44h4.8Z"/>
  <path class="st0" d="M525.83,437.06v12c0,2.94.18,6,.36,9h-7.98v-28.98h-5.82v28.98h-7.98c.18-3,.36-6.06.36-9v-12c0-2.94-.18-6-.36-9h21.78c-.18,3-.36,6.06-.36,9Z"/>
  <path class="st0" d="M543.53,427.16c4.98,0,8.34,2.58,8.94,7.02h-6c0-4.32-1.08-6-2.94-6-2.52,0-4.26.42-4.26,14.22v.12h10.62v1.02h-10.62c.12,14.52,2.52,14.52,4.26,14.4,2.1-.12,2.94-2.1,2.94-7.02h6c-.6,5.64-3.96,7.92-8.94,8.04-6.96.18-11.94-5.58-11.94-16.56,0-9.06,4.92-15.24,11.94-15.24Z"/>
  <path class="st0" d="M568.01,427.16c4.98,0,8.34,2.58,8.94,7.02h-6c0-4.32-1.08-6-2.94-6-2.52,0-4.26.42-4.26,14.22,0,15.66,2.46,15.66,4.26,15.54,2.1-.12,2.94-2.1,2.94-7.02h6c-.6,5.64-3.96,7.92-8.94,8.04-6.96.18-11.94-5.58-11.94-16.56,0-9.06,4.92-15.24,11.94-15.24h0Z"/>
  <path class="st0" d="M49.02,500.06h7.74c-.18,2.76-.36,5.58-.36,8.34v13.32c0,2.76.18,5.58.36,8.34h-7.74c.18-2.76.36-5.58.36-8.34v-13.32c0-2.76-.18-5.58-.36-8.34h0ZM57.24,513.02c.78-9.12,5.52-13.86,12.12-13.86l-2.7,9.84h-.6c-.66-5.7-6.18-6.18-7.86,3.96,6.12.78,9.66,3.66,10.98,9.18.48,1.92.78,5.16,1.32,7.92h-8.46c.24-2.16.3-3.12.24-4.68-.3-4.44-1.68-9.96-4.92-11.7l-.24-.12s.12-.54.12-.54Z"/>
  <path class="st0" d="M96.66,514.64c0,9.72-4.68,16.32-12.06,16.32-6.84,0-12-6.6-12-16.38s5.16-15.42,12-15.42,12.06,6.06,12.06,15.48ZM81.3,527.36c.72,1.26,1.8,2.58,3.3,2.58,1.74,0,2.94-1.32,3.54-2.58.54-1.32.84-4.5.84-12.72s-.3-10.8-.84-12.06c-.6-1.2-1.8-2.4-3.54-2.4-2.04,0-3.24,1.2-3.72,2.4-.42,1.26-.66,4.08-.66,11.88,0,8.34.36,11.58,1.08,12.9h0Z"/>
  <path class="st0" d="M111.42,500.06h7.74c-.18,2.76-.36,5.58-.36,8.34v2.64c1.26-7.8,5.76-11.88,11.88-11.88l-2.7,9.84h-.6c-.66-5.7-6.18-6.18-7.86,3.96,6.12.78,9.66,3.66,10.98,9.18.48,1.92.78,5.16,1.32,7.92h-8.46c.24-2.16.3-3.12.24-4.68-.3-4.38-1.68-9.84-4.8-11.64v7.98c0,2.76.18,5.58.36,8.34h-7.74c.18-2.76.36-5.58.36-8.34v-7.98c-3.12,1.8-4.5,7.26-4.8,11.64-.06,1.56,0,2.52.24,4.68h-8.46c.54-2.76.84-6,1.32-7.92,1.32-5.52,4.86-8.4,10.98-9.18-1.68-10.14-7.2-9.66-7.86-3.96h-.6l-2.7-9.84c6.12,0,10.62,4.08,11.88,11.88v-2.64c0-2.76-.18-5.58-.36-8.34h0Z"/>
  <path class="st0" d="M143.7,501.08v13.26c2.34-.24,3.72-1.26,4.74-4.92h.6c-.36,2.4-.3,8.7,0,11.04h-.6c-1.02-3.6-2.4-4.62-4.74-4.86v13.44h.18c4.2,0,6.78-2.58,7.74-8.4h.6c.18,2.4.48,4.92,1.38,8.4v1.02h-17.88c.18-3,.36-6.06.36-9v-12c0-2.94-.18-6-.36-9h17.88v1.02c-.9,3.48-1.2,6-1.38,8.4h-.6c-.96-5.82-3.54-8.4-7.74-8.4h-.18Z"/>
  <path class="st0" d="M158.7,500.06h19.74v2.88c0,6.84-2.58,10.74-7.74,12.12,4.56,1.02,9.18,4.26,9.24,15h-21.24c.18-3,.36-6.06.36-9v-12c0-2.94-.18-6-.36-9ZM171.78,502.94v-1.86h-5.1v13.5c4.68-.6,5.1-4.5,5.1-11.64ZM172.38,529.04c-.12-11.46-1.92-12.84-5.7-13.32v13.32h5.7Z"/>
  <path class="st0" d="M185.34,500.06h7.98v12.3h5.82v-12.3h7.98c-.18,3-.36,6.06-.36,9v12c0,2.94.18,6,.36,9h-7.98v-16.68h-5.82v16.68h-7.98c.18-3,.36-6.06.36-9v-12c0-2.94-.18-6-.36-9Z"/>
  <path class="st0" d="M214.32,500.06h7.98v22.56l5.82-17.7v-4.86h7.98c-.18,3-.36,6.06-.36,9v12c0,2.94.18,6,.36,9h-7.98v-21.9l-5.82,17.76v4.14h-7.98c.18-3,.36-6.06.36-9v-12c0-2.94-.18-6-.36-9Z"/>
  <path class="st0" d="M243.3,500.06h7.74c-.18,2.76-.36,5.58-.36,8.34v13.32c0,2.76.18,5.58.36,8.34h-7.74c.18-2.76.36-5.58.36-8.34v-13.32c0-2.76-.18-5.58-.36-8.34h0ZM251.52,513.02c.78-9.12,5.52-13.86,12.12-13.86l-2.7,9.84h-.6c-.66-5.7-6.18-6.18-7.86,3.96,6.12.78,9.66,3.66,10.98,9.18.48,1.92.78,5.16,1.32,7.92h-8.46c.24-2.16.3-3.12.24-4.68-.3-4.44-1.68-9.96-4.92-11.7l-.24-.12.12-.54h0Z"/>
  <path class="st0" d="M58.38,572.06h7.74c-.18,2.76-.36,5.58-.36,8.34v2.64c1.26-7.8,5.76-11.88,11.88-11.88l-2.7,9.84h-.6c-.66-5.7-6.18-6.18-7.86,3.96,6.12.78,9.66,3.66,10.98,9.18.48,1.92.78,5.16,1.32,7.92h-8.46c.24-2.16.3-3.12.24-4.68-.3-4.38-1.68-9.84-4.8-11.64v7.98c0,2.76.18,5.58.36,8.34h-7.74c.18-2.76.36-5.58.36-8.34v-7.98c-3.12,1.8-4.5,7.26-4.8,11.64-.06,1.56,0,2.52.24,4.68h-8.46c.54-2.76.84-6,1.32-7.92,1.32-5.52,4.86-8.4,10.98-9.18-1.68-10.14-7.2-9.66-7.86-3.96h-.6l-2.7-9.84c6.12,0,10.62,4.08,11.88,11.88v-2.64c0-2.76-.18-5.58-.36-8.34Z"/>
  <path class="st0" d="M94.56,602.06h-9.06c.3-2.76.24-4.2-.18-6.42l-2.28-11.76c-.06-.24-.06-.48-.12-.72l-1.2-6.18c-.36-1.38-.78-2.94-1.44-4.92h8.1c.24,3.42,1.38,9.3,1.62,10.74l2.52,13.5.54,2.58c.3,1.38.78,1.68,1.5,1.74,0-10.2,1.02-20.16,3.06-23.82,1.98-3.6,4.56-5.46,7.8-5.46l-2.58,10.2c-2.22-4.26-5.82-2.58-6.78,9.42-.6,7.44-.72,14.82,1.44,24.24h-2.04c-.66-3.6-.9-10.38-.9-13.14Z"/>
  <path class="st0" d="M106.32,601.04h4.98l4.26-24.54c.36-1.92-.42-3.06-3-3.84v-.6h14.34v.6c-2.58.78-3.6,1.92-3.36,3.84l3.18,24.54h4.8v1.02l-5.28,12.48h-.6l-.06-12.48h-13.62v12.54h-.6l-5.04-12.54s0-1.02,0-1.02ZM117.06,576.5h-.48l-4.26,24.54h7.5s-2.76-24.54-2.76-24.54Z"/>
  <path class="st0" d="M135.72,572.06h7.74c-.18,2.76-.36,5.58-.36,8.34v13.32c0,2.76.18,5.58.36,8.34h-7.74c.18-2.76.36-5.58.36-8.34v-13.32c0-2.76-.18-5.58-.36-8.34ZM143.94,585.02c.78-9.12,5.52-13.86,12.12-13.86l-2.7,9.84h-.6c-.66-5.7-6.18-6.18-7.86,3.96,6.12.78,9.66,3.66,10.98,9.18.48,1.92.78,5.16,1.32,7.92h-8.46c.24-2.16.3-3.12.24-4.68-.3-4.44-1.68-9.96-4.92-11.7l-.24-.12.12-.54h0Z"/>
  <path class="st0" d="M161.1,572.06h7.98v22.56l5.82-17.7v-4.86h7.98c-.18,3-.36,6.06-.36,9v12c0,2.94.18,6,.36,9h-7.98v-21.9l-5.82,17.76v4.14h-7.98c.18-3,.36-6.06.36-9v-12c0-2.94-.18-6-.36-9Z"/>
  <path class="st0" d="M190.08,572.06h7.98v22.56l5.82-17.7v-4.86h7.98c-.18,3-.36,6.06-.36,9v12c0,2.94.18,6,.36,9h-7.98v-21.9l-5.82,17.76v4.14h-7.98c.18-3,.36-6.06.36-9v-12c0-2.94-.18-6-.36-9ZM197.7,566.54c0,3,1.44,3.42,3.18,3.42,1.62,0,3-.66,3-3.66h4.62c-1.14,3.48-4.32,4.68-7.62,4.68-3.54,0-6.78-.96-7.98-4.44h4.8Z"/>
</svg>