<?xml version="1.0" encoding="UTF-8"?>
<svg id="Layer_1" xmlns="http://www.w3.org/2000/svg" version="1.1" viewBox="0 0 737.9 593.47">
  <!-- Generator: Adobe Illustrator 29.0.1, SVG Export Plug-In . SVG Version: 2.1.0 Build 192)  -->
  <defs>
    <style>
      .st0 {
        fill: #fff;
      }
    </style>
  </defs>
  <path class="st0" d="M25.62,49.29v-18.84c0-3.42-.06-6.12-.6-13.44h10.2c-.54,7.32-.6,10.02-.6,13.44v18.84c0,2.7.18,5.88.6,9.72h-10.2c.48-3.84.6-7.02.6-9.72ZM35.88,33.21c2.04-9.54,6.72-16.74,16.74-16.74l-4.14,14.88h-.6c-1.02-8.64-7.68-9.36-11.28,1.86,10.92,1.62,15.66,9.18,15.66,22.2v3.6h-9.42v-4.44c0-5.1-1.26-17.34-6.78-20.34l-.36-.18.18-.84h0Z"/>
  <path class="st0" d="M78.78,43.59c0,9.72-4.68,16.32-12.06,16.32-6.84,0-12-6.6-12-16.38s5.16-15.42,12-15.42,12.06,6.06,12.06,15.48ZM63.42,56.31c.72,1.26,1.8,2.58,3.3,2.58,1.74,0,2.94-1.32,3.54-2.58.54-1.32.84-4.5.84-12.72s-.3-10.8-.84-12.06c-.6-1.2-1.8-2.4-3.54-2.4-2.04,0-3.24,1.2-3.72,2.4-.42,1.26-.66,4.08-.66,11.88,0,8.34.36,11.58,1.08,12.9Z"/>
  <path class="st0" d="M93.54,29.01h7.74c-.18,2.76-.36,5.58-.36,8.34v2.64c1.26-7.8,5.76-11.88,11.88-11.88l-2.7,9.84h-.6c-.66-5.7-6.18-6.18-7.86,3.96,6.12.78,9.66,3.66,10.98,9.18.48,1.92.78,5.16,1.32,7.92h-8.46c.24-2.16.3-3.12.24-4.68-.3-4.38-1.68-9.84-4.8-11.64v7.98c0,2.76.18,5.58.36,8.34h-7.74c.18-2.76.36-5.58.36-8.34v-7.98c-3.12,1.8-4.5,7.26-4.8,11.64-.06,1.56,0,2.52.24,4.68h-8.46c.54-2.76.84-6,1.32-7.92,1.32-5.52,4.86-8.4,10.98-9.18-1.68-10.14-7.2-9.66-7.86-3.96h-.6l-2.7-9.84c6.12,0,10.62,4.08,11.88,11.88v-2.64c0-2.76-.18-5.58-.36-8.34Z"/>
  <path class="st0" d="M121.8,32.43c.84-1.8.12-2.7-2.1-2.82v-.6h11.46v.6c-1.86.06-2.34,1.32-1.32,4.02l5.46,21.9c.42,1.38.84,2.64,1.2,3.48h-8.34c.18-2.52-.06-3.18-.84-6.6l-.54-2.22c-3.18,7.2-6.54,10.56-8.82,9.18-2.52-1.56-2.22-8.64-1.08-13.92.9-4.02,2.64-8.7,4.92-13.02h0ZM117.72,46.05c-.96,4.5.78,9,3,9.3,1.8.3,3.12-1.02,5.64-6.54l-3.78-15.66c-2.34,4.44-3.96,8.64-4.86,12.9Z"/>
  <path class="st0" d="M163.68,30.03v13.26c2.34-.24,3.72-1.26,4.74-4.92h.6c-.36,2.4-.3,8.7,0,11.04h-.6c-1.02-3.6-2.4-4.62-4.74-4.86v13.44h.18c4.2,0,6.78-2.58,7.74-8.4h.6c.18,2.4.48,4.92,1.38,8.4v1.02h-17.88c.18-3,.36-6.06.36-9v-12c0-2.94-.18-6-.36-9h17.88v1.02c-.9,3.48-1.2,6-1.38,8.4h-.6c-.96-5.82-3.54-8.4-7.74-8.4,0,0-.18,0-.18,0Z"/>
  <path class="st0" d="M190.98,32.61c-1.92-2.58-3.54-2.58-4.44-2.58h-.48v20.64c0,2.76.18,5.58.36,8.34h-7.74c.18-2.76.36-5.58.36-8.34v-13.32c0-2.76-.18-5.58-.36-8.34h16.98v1.02l-1.32,10.92h-.6c-.9-3.54-1.32-6.36-2.76-8.34h0Z"/>
  <path class="st0" d="M221.82,43.59c0,9.72-4.68,16.32-12.06,16.32-6.84,0-12-6.6-12-16.38s5.16-15.42,12-15.42,12.06,6.06,12.06,15.48ZM206.46,56.31c.72,1.26,1.8,2.58,3.3,2.58,1.74,0,2.94-1.32,3.54-2.58.54-1.32.84-4.5.84-12.72s-.3-10.8-.84-12.06c-.6-1.2-1.8-2.4-3.54-2.4-2.04,0-3.24,1.2-3.72,2.4-.42,1.26-.66,4.08-.66,11.88,0,8.34.36,11.58,1.08,12.9Z"/>
  <path class="st0" d="M263.46,59.01h-21.24c.18-3,.36-6.06.36-9v-12c0-2.94-.18-6-.36-9h20.1v.6c-1.38,2.1-2.16,4.56-2.82,7.32h-.6c-.9-3.66-2.76-5.28-4.68-6.24-1.14-.54-2.7-.66-4.02-.66v13.56h.3c5.4.24,12.9,1.68,12.96,15.42ZM255.9,57.99c-.12-11.46-1.92-12.84-5.7-13.32v13.32h5.7Z"/>
  <path class="st0" d="M269.22,50.67v-13.32c0-2.76-.18-5.58-.36-8.34h7.74c-.18,2.76-.36,5.58-.36,8.34v6.24h.9c5.4.24,12.9,1.68,12.96,15.42h-21.24c.18-2.76.36-5.58.36-8.34h0ZM282.54,57.99c-.12-12.06-2.1-12.96-6.3-13.38v13.38h6.3ZM293.88,29.01h7.74c-.18,2.76-.36,5.58-.36,8.34v13.32c0,2.76.18,5.58.36,8.34h-7.74c.18-2.76.36-5.58.36-8.34v-13.32c0-2.76-.18-5.58-.36-8.34Z"/>
  <path class="st0" d="M327.42,59.01h-7.86l-5.16-25.56-3.6,16.92c-.96,4.38-.78,7.14,1.68,8.16v.48h-6.36v-.48c.96-.18,2.52-2.88,3.66-8.16l3.84-17.64c.36-1.68-.9-2.76-3.84-3.12v-.6h16.08v.6c-2.76.36-3.96,1.44-3.6,3.12l5.16,25.8v.48Z"/>
  <path class="st0" d="M335.88,32.43c.84-1.8.12-2.7-2.1-2.82v-.6h11.46v.6c-1.86.06-2.34,1.32-1.32,4.02l5.46,21.9c.42,1.38.84,2.64,1.2,3.48h-8.34c.18-2.52-.06-3.18-.84-6.6l-.54-2.22c-3.18,7.2-6.54,10.56-8.82,9.18-2.52-1.56-2.22-8.64-1.08-13.92.9-4.02,2.64-8.7,4.92-13.02ZM331.8,46.05c-.96,4.5.78,9,3,9.3,1.8.3,3.12-1.02,5.64-6.54l-3.78-15.66c-2.34,4.44-3.96,8.64-4.86,12.9h0Z"/>
  <path class="st0" d="M392.04,43.59c0,9.72-4.68,16.32-12.06,16.32-6.84,0-12-6.6-12-16.38s5.16-15.42,12-15.42,12.06,6.06,12.06,15.48ZM376.68,56.31c.72,1.26,1.8,2.58,3.3,2.58,1.74,0,2.94-1.32,3.54-2.58.54-1.32.84-4.5.84-12.72s-.3-10.8-.84-12.06c-.6-1.2-1.8-2.4-3.54-2.4-2.04,0-3.24,1.2-3.72,2.4-.42,1.26-.66,4.08-.66,11.88,0,8.34.36,11.58,1.08,12.9h0Z"/>
  <path class="st0" d="M404.94,41.31c-5.82-1.26-8.7-5.4-9.3-12.3h9.9v.54c-4.08,3.3-3.9,11.58,2.88,11.58s6.96-8.28,2.88-11.58v-.54h9.9c-.6,6.9-3.48,11.04-9.24,12.3v9.36c0,2.76.18,5.58.36,8.34h-7.74c.18-2.76.36-5.58.36-8.34v-9.36Z"/>
  <path class="st0" d="M434.58,30.03v13.26c2.34-.24,3.72-1.26,4.74-4.92h.6c-.36,2.4-.3,8.7,0,11.04h-.6c-1.02-3.6-2.4-4.62-4.74-4.86v13.44h.18c4.2,0,6.78-2.58,7.74-8.4h.6c.18,2.4.48,4.92,1.38,8.4v1.02h-17.88c.18-3,.36-6.06.36-9v-12c0-2.94-.18-6-.36-9h17.88v1.02c-.9,3.48-1.2,6-1.38,8.4h-.6c-.96-5.82-3.54-8.4-7.74-8.4,0,0-.18,0-.18,0Z"/>
  <path class="st0" d="M449.58,29.01h7.98v12.3h5.82v-12.3h7.98c-.18,3-.36,6.06-.36,9v12c0,2.94.18,6,.36,9h-7.98v-16.68h-5.82v16.68h-7.98c.18-3,.36-6.06.36-9v-12c0-2.94-.18-6-.36-9Z"/>
  <path class="st0" d="M499.79,59.01h-21.24c.18-2.76.36-5.58.36-8.34v-13.32c0-2.76-.18-5.58-.36-8.34h7.74c-.18,2.76-.36,5.58-.36,8.34v6.24h.9c5.4.24,12.9,1.68,12.96,15.42ZM492.23,57.99c-.12-12.06-2.1-12.96-6.3-13.38v13.38h6.3Z"/>
  <path class="st0" d="M541.43,59.01h-21.24c.18-3,.36-6.06.36-9v-12c0-2.94-.18-6-.36-9h20.1v.6c-1.38,2.1-2.16,4.56-2.82,7.32h-.6c-.9-3.66-2.76-5.28-4.68-6.24-1.14-.54-2.7-.66-4.02-.66v13.56h.3c5.4.24,12.9,1.68,12.96,15.42ZM533.87,57.99c-.12-11.46-1.92-12.84-5.7-13.32v13.32h5.7Z"/>
  <path class="st0" d="M565.43,59.01h-7.86l-5.16-25.56-3.6,16.92c-.96,4.38-.78,7.14,1.68,8.16v.48h-6.36v-.48c.96-.18,2.52-2.88,3.66-8.16l3.84-17.64c.36-1.68-.9-2.76-3.84-3.12v-.6h16.08v.6c-2.76.36-3.96,1.44-3.6,3.12l5.16,25.8v.48h0Z"/>
  <path class="st0" d="M577.91,30.03v13.26c2.34-.24,3.72-1.26,4.74-4.92h.6c-.36,2.4-.3,8.7,0,11.04h-.6c-1.02-3.6-2.4-4.62-4.74-4.86v13.44h.18c4.2,0,6.78-2.58,7.74-8.4h.6c.18,2.4.48,4.92,1.38,8.4v1.02h-17.88c.18-3,.36-6.06.36-9v-12c0-2.94-.18-6-.36-9h17.88v1.02c-.9,3.48-1.2,6-1.38,8.4h-.6c-.96-5.82-3.54-8.4-7.74-8.4,0,0-.18,0-.18,0Z"/>
  <path class="st0" d="M589.91,57.99h4.98l4.26-24.54c.36-1.92-.42-3.06-3-3.84v-.6h14.34v.6c-2.58.78-3.6,1.92-3.36,3.84l3.18,24.54h4.8v1.02l-5.28,12.48h-.6l-.06-12.48h-13.62v12.54h-.6l-5.04-12.54v-1.02h0ZM600.65,33.45h-.48l-4.26,24.54h7.5l-2.76-24.54Z"/>
  <path class="st0" d="M619.31,29.01h7.98v12.3h5.82v-12.3h7.98c-.18,3-.36,6.06-.36,9v12c0,2.94.18,6,.36,9h-7.98v-16.68h-5.82v16.68h-7.98c.18-3,.36-6.06.36-9v-12c0-2.94-.18-6-.36-9Z"/>
  <path class="st0" d="M652.25,32.43c.84-1.8.12-2.7-2.1-2.82v-.6h11.46v.6c-1.86.06-2.34,1.32-1.32,4.02l5.46,21.9c.42,1.38.84,2.64,1.2,3.48h-8.34c.18-2.52-.06-3.18-.84-6.6l-.54-2.22c-3.18,7.2-6.54,10.56-8.82,9.18-2.52-1.56-2.22-8.64-1.08-13.92.9-4.02,2.64-8.7,4.92-13.02ZM648.17,46.05c-.96,4.5.78,9,3,9.3,1.8.3,3.12-1.02,5.64-6.54l-3.78-15.66c-2.34,4.44-3.96,8.64-4.86,12.9Z"/>
  <path class="st0" d="M678.53,59.01h-7.38c.18-7.32,1.44-14.64,8.88-16.62-5.04-.66-8.7-2.64-8.82-6.9-.12-4.68,3.12-7.38,9.78-7.38,5.04,0,10.44,4.02,10.44,14.7v7.8c0,2.76.18,5.58.36,8.34h-7.74c.18-2.76.36-5.58.36-8.34v-7.98c-3.6,1.8-6.3,5.46-5.88,16.38ZM684.41,41.85v-5.76c0-4.68-1.62-7.08-3.42-7.08-2.28,0-3.66,1.56-3.54,5.88.12,4.68,4.14,6.96,6.96,6.96h0Z"/>
  <path class="st0" d="M25.62,121.29v-18.84c0-3.42-.06-6.12-.6-13.44h10.2c-.54,7.32-.6,10.02-.6,13.44v18.84c0,2.7.18,5.88.6,9.72h-10.2c.48-3.84.6-7.02.6-9.72ZM35.88,105.21c2.04-9.54,6.72-16.74,16.74-16.74l-4.14,14.88h-.6c-1.02-8.64-7.68-9.36-11.28,1.86,10.92,1.62,15.66,9.18,15.66,22.2v3.6h-9.42v-4.44c0-5.1-1.26-17.34-6.78-20.34l-.36-.18.18-.84h0Z"/>
  <path class="st0" d="M54.72,110.07c0-12.36,5.82-21.96,14.94-21.96s15,9.6,15,21.96-5.88,21.84-15,21.84-14.94-9.6-14.94-21.84ZM65.4,128.13c.72,1.86,2.1,2.82,4.26,2.82s3.66-.96,4.32-2.82c.78-1.92,1.14-7.98,1.14-18.06s-.36-16.26-1.14-18.06c-.66-1.98-2.1-2.94-4.32-2.94s-3.54.96-4.26,2.94c-.84,1.8-1.08,7.86-1.08,18.06s.24,16.14,1.08,18.06Z"/>
  <path class="st0" d="M103.2,121.29v-15.06c-6.42,1.74-6.78,14.58-6.78,20.34v4.44h-9.18v-3.6c0-13.02,4.5-20.58,15.42-22.2-3.6-11.22-10.26-10.5-11.28-1.86h-.6l-4.14-15.24c9.72,0,14.46,7.14,16.56,16.32v-1.98c0-3.42-.06-6.12-.6-13.44h10.2c-.54,7.32-.6,10.02-.6,13.44v1.98c2.1-9.18,6.84-16.32,16.56-16.32l-4.14,15.24h-.6c-1.02-8.64-7.68-9.36-11.28,1.86,10.92,1.62,15.42,9.18,15.42,22.2v3.6h-9.18v-4.44c0-5.76-.36-18.6-6.78-20.34v15.06c0,2.7.18,5.88.6,9.72h-10.2c.48-3.84.6-7.02.6-9.72Z"/>
  <path class="st0" d="M139.62,94.17c1.26-2.7.18-4.14-3.24-4.32v-.84h15.12v.72c-2.82.06-3.54,2.16-2.04,6.3l7.32,24.72.06.36,2.94,9.9h-9.96c-.36-3.78-.66-4.86-1.86-10.02l-.84-3.36c-4.86,10.92-9.9,16.02-13.32,13.92-3.9-2.4-3.54-9.66-1.8-17.64,1.38-6.12,4.08-13.14,7.62-19.74h0ZM132.96,114.87c-1.44,6.78,1.62,10.14,4.98,10.62,2.7.42,4.92-.84,8.76-9.18l-6.3-21.48c-3.54,6.72-6.06,13.5-7.44,20.04h0Z"/>
  <path class="st0" d="M179.58,121.29v-18.84c0-3.42-.06-6.12-.6-13.44h10.2c-.54,7.32-.6,10.02-.6,13.44v18.84c0,2.7.18,5.88.6,9.72h-10.2c.48-3.84.6-7.02.6-9.72ZM190.92,96.03c4.14-4.56,11.22-6.84,17.88-6.84v11.82h-.6c-4.5-7.62-12.72-8.76-17.28-4.08,12.18,4.56,18.42,16.38,18.96,29.58.12,1.38.36,2.94.6,4.5h-11.64c.54-3.66.54-7.38.48-9.42-.84-12.78-3.66-20.76-8.4-23.82l-1.02-.66,1.02-1.08h0Z"/>
  <path class="st0" d="M212.58,110.07c0-12.36,5.82-21.96,14.94-21.96s15,9.6,15,21.96-5.88,21.84-15,21.84-14.94-9.6-14.94-21.84h0ZM223.26,128.13c.72,1.86,2.1,2.82,4.26,2.82s3.66-.96,4.32-2.82c.78-1.92,1.14-7.98,1.14-18.06s-.36-16.26-1.14-18.06c-.66-1.98-2.1-2.94-4.32-2.94s-3.54.96-4.26,2.94c-.84,1.8-1.08,7.86-1.08,18.06s.24,16.14,1.08,18.06h0Z"/>
  <path class="st0" d="M264.24,121.29v-18.84c0-1.56,0-2.94-.06-4.68-4.74,3.12-7.56,11.04-8.4,23.82-.06,2.04-.06,5.76.48,9.42h-11.64c.24-1.56.48-3.12.6-4.5.54-13.2,6.78-24.96,18.9-29.58v-.06c-4.56-4.62-12.72-3.48-17.22,4.14h-.6v-11.82c6.6,0,13.62,2.22,17.76,6.72-.06-1.8-.18-3.96-.42-6.9h10.2c-.24,2.88-.36,5.04-.42,6.78,4.14-4.38,11.1-6.6,17.64-6.6v11.82h-.6c-4.44-7.5-12.54-8.7-17.1-4.26v.24c12.06,4.62,18.24,16.38,18.78,29.52.12,1.38.36,2.94.6,4.5h-11.64c.54-3.66.54-7.38.48-9.42-.84-12.66-3.6-20.58-8.28-23.76-.06,1.74-.06,3.12-.06,4.62v18.84c0,2.7.18,5.88.6,9.72h-10.2c.48-3.84.6-7.02.6-9.72h0Z"/>
  <path class="st0" d="M303.72,94.17c1.26-2.7.18-4.14-3.24-4.32v-.84h15.12v.72c-2.82.06-3.54,2.16-2.04,6.3l7.32,24.72.06.36,2.94,9.9h-9.96c-.36-3.78-.66-4.86-1.86-10.02l-.84-3.36c-4.86,10.92-9.9,16.02-13.32,13.92-3.9-2.4-3.54-9.66-1.8-17.64,1.38-6.12,4.08-13.14,7.62-19.74h0ZM297.06,114.87c-1.44,6.78,1.62,10.14,4.98,10.62,2.7.42,4.92-.84,8.76-9.18l-6.3-21.48c-3.54,6.72-6.06,13.5-7.44,20.04h0Z"/>
  <path class="st0" d="M38.16,193.29v-15.06c-6.42,1.74-6.78,14.58-6.78,20.34v4.44h-9.18v-3.6c0-13.02,4.5-20.58,15.42-22.2-3.6-11.22-10.26-10.5-11.28-1.86h-.6l-4.14-15.24c9.72,0,14.46,7.14,16.56,16.32v-1.98c0-3.42-.06-6.12-.6-13.44h10.2c-.54,7.32-.6,10.02-.6,13.44v1.98c2.1-9.18,6.84-16.32,16.56-16.32l-4.14,15.24h-.6c-1.02-8.64-7.68-9.36-11.28,1.86,10.92,1.62,15.42,9.18,15.42,22.2v3.6h-9.18v-4.44c0-5.76-.36-18.6-6.78-20.34v15.06c0,2.7.18,5.88.6,9.72h-10.2c.48-3.84.6-7.02.6-9.72h0Z"/>
  <path class="st0" d="M79.38,203.01h-9.06c.3-2.76.24-4.2-.18-6.42l-2.28-11.76c-.06-.24-.06-.48-.12-.72l-1.2-6.18c-.36-1.38-.78-2.94-1.44-4.92h8.1c.24,3.42,1.38,9.3,1.62,10.74l2.52,13.5.54,2.58c.3,1.38.78,1.68,1.5,1.74,0-10.2,1.02-20.16,3.06-23.82,1.98-3.6,4.56-5.46,7.8-5.46l-2.58,10.2c-2.22-4.26-5.82-2.58-6.78,9.42-.6,7.44-.72,14.82,1.44,24.24h-2.04c-.66-3.6-.9-10.38-.9-13.14h0Z"/>
  <path class="st0" d="M94.14,173.01h7.74c-.18,2.76-.36,5.58-.36,8.34v13.32c0,2.76.18,5.58.36,8.34h-7.74c.18-2.76.36-5.58.36-8.34v-13.32c0-2.76-.18-5.58-.36-8.34h0ZM102.36,185.97c.78-9.12,5.52-13.86,12.12-13.86l-2.7,9.84h-.6c-.66-5.7-6.18-6.18-7.86,3.96,6.12.78,9.66,3.66,10.98,9.18.48,1.92.78,5.16,1.32,7.92h-8.46c.24-2.16.3-3.12.24-4.68-.3-4.44-1.68-9.96-4.92-11.7l-.24-.12.12-.54h0Z"/>
  <path class="st0" d="M180.84,193.29v-18.84c0-1.56,0-2.94-.06-4.68-4.74,3.12-7.56,11.04-8.4,23.82-.06,2.04-.06,5.76.48,9.42h-11.64c.24-1.56.48-3.12.6-4.5.54-13.2,6.78-24.96,18.9-29.58v-.06c-4.56-4.62-12.72-3.48-17.22,4.14h-.6v-11.82c6.6,0,13.62,2.22,17.76,6.72-.06-1.8-.18-3.96-.42-6.9h10.2c-.24,2.88-.36,5.04-.42,6.78,4.14-4.38,11.1-6.6,17.64-6.6v11.82h-.6c-4.44-7.5-12.54-8.7-17.1-4.26v.24c12.06,4.62,18.24,16.38,18.78,29.52.12,1.38.36,2.94.6,4.5h-11.64c.54-3.66.54-7.38.48-9.42-.84-12.66-3.6-20.58-8.28-23.76-.06,1.74-.06,3.12-.06,4.62v18.84c0,2.7.18,5.88.6,9.72h-10.2c.48-3.84.6-7.02.6-9.72h0Z"/>
  <path class="st0" d="M225.12,203.01h-9.06c.3-2.76.24-4.2-.18-6.42l-2.28-11.76c-.06-.24-.06-.48-.12-.72l-1.2-6.18c-.36-1.38-.78-2.94-1.44-4.92h8.1c.24,3.42,1.38,9.3,1.62,10.74l2.52,13.5.54,2.58c.3,1.38.78,1.68,1.5,1.74,0-10.2,1.02-20.16,3.06-23.82,1.98-3.6,4.56-5.46,7.8-5.46l-2.58,10.2c-2.22-4.26-5.82-2.58-6.78,9.42-.6,7.44-.72,14.82,1.44,24.24h-2.04c-.66-3.6-.9-10.38-.9-13.14h0Z"/>
  <path class="st0" d="M239.1,173.01h7.74c-.18,2.76-.36,5.58-.36,8.34v13.32c0,2.76.18,5.58.36,8.34h-7.74c.18-2.76.36-5.58.36-8.34v-13.32c0-2.76-.18-5.58-.36-8.34h0ZM248.4,179.13c2.76-6,6.3-6.96,10.86-6.72v7.44c-3.96-3.66-8.1-3.66-10.26.12,11.04,4.2,13.44,11.22,13.62,23.04h-7.98c0-12.42.12-19.2-5.76-22.14l-1.08-.42.6-1.32h0Z"/>
  <path class="st0" d="M25.62,265.29v-18.84c0-3.42-.06-6.12-.6-13.44h10.2c-.54,7.32-.6,10.02-.6,13.44v18.84c0,2.7.18,5.88.6,9.72h-10.2c.48-3.84.6-7.02.6-9.72ZM35.88,249.21c2.04-9.54,6.72-16.74,16.74-16.74l-4.14,14.88h-.6c-1.02-8.64-7.68-9.36-11.28,1.86,10.92,1.62,15.66,9.18,15.66,22.2v3.6h-9.42v-4.44c0-5.1-1.26-17.34-6.78-20.34l-.36-.18.18-.84h0Z"/>
  <path class="st0" d="M68.4,275.01h-9.06c.3-2.76.24-4.2-.18-6.42l-2.28-11.76c-.06-.24-.06-.48-.12-.72l-1.2-6.18c-.36-1.38-.78-2.94-1.44-4.92h8.1c.24,3.42,1.38,9.3,1.62,10.74l2.52,13.5.54,2.58c.3,1.38.78,1.68,1.5,1.74,0-10.2,1.02-20.16,3.06-23.82,1.98-3.6,4.56-5.46,7.8-5.46l-2.58,10.2c-2.22-4.26-5.82-2.58-6.78,9.42-.6,7.44-.72,14.82,1.44,24.24h-2.04c-.66-3.6-.9-10.38-.9-13.14h0Z"/>
  <path class="st0" d="M81.72,266.73v-7.8c0-8.76,3.36-14.82,10.44-14.82,5.04,0,9.78,2.22,9.78,8.1,0,5.34-6.06,8.34-13.2,8.34v6.18c0,2.76.18,5.58.36,8.34h-7.74c.18-2.76.36-5.58.36-8.34ZM92.16,245.13c-2.22,0-3.42,2.04-3.42,7.08v7.56c2.76,0,6.96-.84,6.96-7.62,0-5.04-1.26-7.02-3.54-7.02h0Z"/>
  <path class="st0" d="M111.3,248.43c.84-1.8.12-2.7-2.1-2.82v-.6h11.46v.6c-1.86.06-2.34,1.32-1.32,4.02l5.46,21.9c.42,1.38.84,2.64,1.2,3.48h-8.34c.18-2.52-.06-3.18-.84-6.6l-.54-2.22c-3.18,7.2-6.54,10.56-8.82,9.18-2.52-1.56-2.22-8.64-1.08-13.92.9-4.02,2.64-8.7,4.92-13.02h0ZM107.22,262.05c-.96,4.5.78,9,3,9.3,1.8.3,3.12-1.02,5.64-6.54l-3.78-15.66c-2.34,4.44-3.96,8.64-4.86,12.9h0Z"/>
  <path class="st0" d="M139.56,245.01h7.74c-.18,2.76-.36,5.58-.36,8.34v2.64c1.26-7.8,5.76-11.88,11.88-11.88l-2.7,9.84h-.6c-.66-5.7-6.18-6.18-7.86,3.96,6.12.78,9.66,3.66,10.98,9.18.48,1.92.78,5.16,1.32,7.92h-8.46c.24-2.16.3-3.12.24-4.68-.3-4.38-1.68-9.84-4.8-11.64v7.98c0,2.76.18,5.58.36,8.34h-7.74c.18-2.76.36-5.58.36-8.34v-7.98c-3.12,1.8-4.5,7.26-4.8,11.64-.06,1.56,0,2.52.24,4.68h-8.46c.54-2.76.84-6,1.32-7.92,1.32-5.52,4.86-8.4,10.98-9.18-1.68-10.14-7.2-9.66-7.86-3.96h-.6l-2.7-9.84c6.12,0,10.62,4.08,11.88,11.88v-2.64c0-2.76-.18-5.58-.36-8.34h0Z"/>
  <path class="st0" d="M179.46,265.29v-18.84c0-3.42-.06-6.12-.6-13.44h10.2c-.54,7.32-.6,10.02-.6,13.44v18.84c0,2.7.18,5.88.6,9.72h-10.2c.48-3.84.6-7.02.6-9.72ZM190.8,240.03c4.14-4.56,11.22-6.84,17.88-6.84v11.82h-.6c-4.5-7.62-12.72-8.76-17.28-4.08,12.18,4.56,18.42,16.38,18.96,29.58.12,1.38.36,2.94.6,4.5h-11.64c.54-3.66.54-7.38.48-9.42-.84-12.78-3.66-20.76-8.4-23.82l-1.02-.66,1.02-1.08h0Z"/>
  <path class="st0" d="M226.14,275.01h-9.06c.3-2.76.24-4.2-.18-6.42l-2.28-11.76c-.06-.24-.06-.48-.12-.72l-1.2-6.18c-.36-1.38-.78-2.94-1.44-4.92h8.1c.24,3.42,1.38,9.3,1.62,10.74l2.52,13.5.54,2.58c.3,1.38.78,1.68,1.5,1.74,0-10.2,1.02-20.16,3.06-23.82,1.98-3.6,4.56-5.46,7.8-5.46l-2.58,10.2c-2.22-4.26-5.82-2.58-6.78,9.42-.6,7.44-.72,14.82,1.44,24.24h-2.04c-.66-3.6-.9-10.38-.9-13.14h0Z"/>
  <path class="st0" d="M239.46,266.73v-7.8c0-8.76,3.36-14.82,10.44-14.82,5.04,0,9.78,2.22,9.78,8.1,0,5.34-6.06,8.34-13.2,8.34v6.18c0,2.76.18,5.58.36,8.34h-7.74c.18-2.76.36-5.58.36-8.34h0ZM249.9,245.13c-2.22,0-3.42,2.04-3.42,7.08v7.56c2.76,0,6.96-.84,6.96-7.62,0-5.04-1.26-7.02-3.54-7.02h0Z"/>
  <path class="st0" d="M269.04,248.43c.84-1.8.12-2.7-2.1-2.82v-.6h11.46v.6c-1.86.06-2.34,1.32-1.32,4.02l5.46,21.9c.42,1.38.84,2.64,1.2,3.48h-8.34c.18-2.52-.06-3.18-.84-6.6l-.54-2.22c-3.18,7.2-6.54,10.56-8.82,9.18-2.52-1.56-2.22-8.64-1.08-13.92.9-4.02,2.64-8.7,4.92-13.02h0ZM264.96,262.05c-.96,4.5.78,9,3,9.3,1.8.3,3.12-1.02,5.64-6.54l-3.78-15.66c-2.34,4.44-3.96,8.64-4.86,12.9h0Z"/>
  <path class="st0" d="M308.34,252.87l-.3-.12v13.92c0,2.76.18,5.58.36,8.34h-7.74c.18-2.76.36-5.58.36-8.34v-13.92l-.24.12c-5.88,2.94-5.76,9.72-5.76,22.14h-7.98c.18-11.82,2.58-18.84,13.62-23.04-2.16-3.78-6.3-3.78-10.26-.12v-7.44c4.38-.24,7.86.66,10.56,6.12-.06-1.86-.18-3.72-.3-5.52h7.74c-.12,1.86-.24,3.78-.3,5.64,2.7-5.58,6.18-6.48,10.62-6.24v7.44c-3.96-3.66-8.1-3.66-10.26.12,11.04,4.2,13.44,11.22,13.62,23.04h-7.98c0-12.42.12-19.2-5.76-22.14h0Z"/>
  <path class="st0" d="M25.62,337.29v-18.84c0-3.42-.06-6.12-.6-13.44h10.2c-.54,7.32-.6,10.02-.6,13.44v18.84c0,2.7.18,5.88.6,9.72h-10.2c.48-3.84.6-7.02.6-9.72ZM35.88,321.21c2.04-9.54,6.72-16.74,16.74-16.74l-4.14,14.88h-.6c-1.02-8.64-7.68-9.36-11.28,1.86,10.92,1.62,15.66,9.18,15.66,22.2v3.6h-9.42v-4.44c0-5.1-1.26-17.34-6.78-20.34l-.36-.18.18-.84h0Z"/>
  <path class="st0" d="M68.4,347.01h-9.06c.3-2.76.24-4.2-.18-6.42l-2.28-11.76c-.06-.24-.06-.48-.12-.72l-1.2-6.18c-.36-1.38-.78-2.94-1.44-4.92h8.1c.24,3.42,1.38,9.3,1.62,10.74l2.52,13.5.54,2.58c.3,1.38.78,1.68,1.5,1.74,0-10.2,1.02-20.16,3.06-23.82,1.98-3.6,4.56-5.46,7.8-5.46l-2.58,10.2c-2.22-4.26-5.82-2.58-6.78,9.42-.6,7.44-.72,14.82,1.44,24.24h-2.04c-.66-3.6-.9-10.38-.9-13.14h0Z"/>
  <path class="st0" d="M87.9,330.51l.54,12.9c.12,2.7-1.74,17.94-2.94,24.78h-.54c-1.68-6.84-3.42-20.22-4.68-34.92-.6-7.26,2.7-12.96,7.62-16.98,9,5.76,13.92,12.24,13.92,19.56,0,5.94-3.6,9.48-8.04,11.88-.54.24-2.28-1.56-5.34-5.28,2.82,2.94,4.44,4.26,5.04,3.84.54-.36.84-5.04.84-14.1,0-6.48-.78-10.56-2.28-12.18-2.94,3.18-4.32,6.6-4.14,10.5Z"/>
  <path class="st0" d="M110.7,320.43c.84-1.8.12-2.7-2.1-2.82v-.6h11.46v.6c-1.86.06-2.34,1.32-1.32,4.02l5.46,21.9c.42,1.38.84,2.64,1.2,3.48h-8.34c.18-2.52-.06-3.18-.84-6.6l-.54-2.22c-3.18,7.2-6.54,10.56-8.82,9.18-2.52-1.56-2.22-8.64-1.08-13.92.9-4.02,2.64-8.7,4.92-13.02h0ZM106.62,334.05c-.96,4.5.78,9,3,9.3,1.8.3,3.12-1.02,5.64-6.54l-3.78-15.66c-2.34,4.44-3.96,8.64-4.86,12.9h0Z"/>
  <path class="st0" d="M138.96,317.01h7.74c-.18,2.76-.36,5.58-.36,8.34v2.64c1.26-7.8,5.76-11.88,11.88-11.88l-2.7,9.84h-.6c-.66-5.7-6.18-6.18-7.86,3.96,6.12.78,9.66,3.66,10.98,9.18.48,1.92.78,5.16,1.32,7.92h-8.46c.24-2.16.3-3.12.24-4.68-.3-4.38-1.68-9.84-4.8-11.64v7.98c0,2.76.18,5.58.36,8.34h-7.74c.18-2.76.36-5.58.36-8.34v-7.98c-3.12,1.8-4.5,7.26-4.8,11.64-.06,1.56,0,2.52.24,4.68h-8.46c.54-2.76.84-6,1.32-7.92,1.32-5.52,4.86-8.4,10.98-9.18-1.68-10.14-7.2-9.66-7.86-3.96h-.6l-2.7-9.84c6.12,0,10.62,4.08,11.88,11.88v-2.64c0-2.76-.18-5.58-.36-8.34Z"/>
  <path class="st0" d="M178.86,337.29v-18.84c0-3.42-.06-6.12-.6-13.44h10.2c-.54,7.32-.6,10.02-.6,13.44v18.84c0,2.7.18,5.88.6,9.72h-10.2c.48-3.84.6-7.02.6-9.72ZM190.2,312.03c4.14-4.56,11.22-6.84,17.88-6.84v11.82h-.6c-4.5-7.62-12.72-8.76-17.28-4.08,12.18,4.56,18.42,16.38,18.96,29.58.12,1.38.36,2.94.6,4.5h-11.64c.54-3.66.54-7.38.48-9.42-.84-12.78-3.66-20.76-8.4-23.82l-1.02-.66,1.02-1.08h0Z"/>
  <path class="st0" d="M225.54,347.01h-9.06c.3-2.76.24-4.2-.18-6.42l-2.28-11.76c-.06-.24-.06-.48-.12-.72l-1.2-6.18c-.36-1.38-.78-2.94-1.44-4.92h8.1c.24,3.42,1.38,9.3,1.62,10.74l2.52,13.5.54,2.58c.3,1.38.78,1.68,1.5,1.74,0-10.2,1.02-20.16,3.06-23.82,1.98-3.6,4.56-5.46,7.8-5.46l-2.58,10.2c-2.22-4.26-5.82-2.58-6.78,9.42-.6,7.44-.72,14.82,1.44,24.24h-2.04c-.66-3.6-.9-10.38-.9-13.14h0Z"/>
  <path class="st0" d="M245.04,330.51l.54,12.9c.12,2.7-1.74,17.94-2.94,24.78h-.54c-1.68-6.84-3.42-20.22-4.68-34.92-.6-7.26,2.7-12.96,7.62-16.98,9,5.76,13.92,12.24,13.92,19.56,0,5.94-3.6,9.48-8.04,11.88-.54.24-2.28-1.56-5.34-5.28,2.82,2.94,4.44,4.26,5.04,3.84.54-.36.84-5.04.84-14.1,0-6.48-.78-10.56-2.28-12.18-2.94,3.18-4.32,6.6-4.14,10.5Z"/>
  <path class="st0" d="M267.84,320.43c.84-1.8.12-2.7-2.1-2.82v-.6h11.46v.6c-1.86.06-2.34,1.32-1.32,4.02l5.46,21.9c.42,1.38.84,2.64,1.2,3.48h-8.34c.18-2.52-.06-3.18-.84-6.6l-.54-2.22c-3.18,7.2-6.54,10.56-8.82,9.18-2.52-1.56-2.22-8.64-1.08-13.92.9-4.02,2.64-8.7,4.92-13.02h0ZM263.76,334.05c-.96,4.5.78,9,3,9.3,1.8.3,3.12-1.02,5.64-6.54l-3.78-15.66c-2.34,4.44-3.96,8.64-4.86,12.9h0Z"/>
  <path class="st0" d="M307.13,324.87l-.3-.12v13.92c0,2.76.18,5.58.36,8.34h-7.74c.18-2.76.36-5.58.36-8.34v-13.92l-.24.12c-5.88,2.94-5.76,9.72-5.76,22.14h-7.98c.18-11.82,2.58-18.84,13.62-23.04-2.16-3.78-6.3-3.78-10.26-.12v-7.44c4.38-.24,7.86.66,10.56,6.12-.06-1.86-.18-3.72-.3-5.52h7.74c-.12,1.86-.24,3.78-.3,5.64,2.7-5.58,6.18-6.48,10.62-6.24v7.44c-3.96-3.66-8.1-3.66-10.26.12,11.04,4.2,13.44,11.22,13.62,23.04h-7.98c0-12.42.12-19.2-5.76-22.14h0Z"/>
  <path class="st0" d="M25.62,409.29v-18.84c0-3.42-.06-6.12-.6-13.44h10.2c-.54,7.32-.6,10.02-.6,13.44v18.84c0,2.7.18,5.88.6,9.72h-10.2c.48-3.84.6-7.02.6-9.72ZM35.88,393.21c2.04-9.54,6.72-16.74,16.74-16.74l-4.14,14.88h-.6c-1.02-8.64-7.68-9.36-11.28,1.86,10.92,1.62,15.66,9.18,15.66,22.2v3.6h-9.42v-4.44c0-5.1-1.26-17.34-6.78-20.34l-.36-.18.18-.84h0Z"/>
  <path class="st0" d="M68.4,419.01h-9.06c.3-2.76.24-4.2-.18-6.42l-2.28-11.76c-.06-.24-.06-.48-.12-.72l-1.2-6.18c-.36-1.38-.78-2.94-1.44-4.92h8.1c.24,3.42,1.38,9.3,1.62,10.74l2.52,13.5.54,2.58c.3,1.38.78,1.68,1.5,1.74,0-10.2,1.02-20.16,3.06-23.82,1.98-3.6,4.56-5.46,7.8-5.46l-2.58,10.2c-2.22-4.26-5.82-2.58-6.78,9.42-.6,7.44-.72,14.82,1.44,24.24h-2.04c-.66-3.6-.9-10.38-.9-13.14h0Z"/>
  <path class="st0" d="M81.72,410.73v-7.8c0-8.76,3.36-14.82,10.44-14.82,5.04,0,9.78,2.22,9.78,8.1,0,5.34-6.06,8.34-13.2,8.34v6.18c0,2.76.18,5.58.36,8.34h-7.74c.18-2.76.36-5.58.36-8.34ZM92.16,389.13c-2.22,0-3.42,2.04-3.42,7.08v7.56c2.76,0,6.96-.84,6.96-7.62,0-5.04-1.26-7.02-3.54-7.02Z"/>
  <path class="st0" d="M111.3,392.43c.84-1.8.12-2.7-2.1-2.82v-.6h11.46v.6c-1.86.06-2.34,1.32-1.32,4.02l5.46,21.9c.42,1.38.84,2.64,1.2,3.48h-8.34c.18-2.52-.06-3.18-.84-6.6l-.54-2.22c-3.18,7.2-6.54,10.56-8.82,9.18-2.52-1.56-2.22-8.64-1.08-13.92.9-4.02,2.64-8.7,4.92-13.02h0ZM107.22,406.05c-.96,4.5.78,9,3,9.3,1.8.3,3.12-1.02,5.64-6.54l-3.78-15.66c-2.34,4.44-3.96,8.64-4.86,12.9h0Z"/>
  <path class="st0" d="M139.56,389.01h7.74c-.18,2.76-.36,5.58-.36,8.34v2.64c1.26-7.8,5.76-11.88,11.88-11.88l-2.7,9.84h-.6c-.66-5.7-6.18-6.18-7.86,3.96,6.12.78,9.66,3.66,10.98,9.18.48,1.92.78,5.16,1.32,7.92h-8.46c.24-2.16.3-3.12.24-4.68-.3-4.38-1.68-9.84-4.8-11.64v7.98c0,2.76.18,5.58.36,8.34h-7.74c.18-2.76.36-5.58.36-8.34v-7.98c-3.12,1.8-4.5,7.26-4.8,11.64-.06,1.56,0,2.52.24,4.68h-8.46c.54-2.76.84-6,1.32-7.92,1.32-5.52,4.86-8.4,10.98-9.18-1.68-10.14-7.2-9.66-7.86-3.96h-.6l-2.7-9.84c6.12,0,10.62,4.08,11.88,11.88v-2.64c0-2.76-.18-5.58-.36-8.34Z"/>
  <path class="st0" d="M200.1,419.01h-21.24c.18-3,.36-6.06.36-9v-12c0-2.94-.18-6-.36-9h20.1v.6c-1.38,2.1-2.16,4.56-2.82,7.32h-.6c-.9-3.66-2.76-5.28-4.68-6.24-1.14-.54-2.7-.66-4.02-.66v13.56h.3c5.4.24,12.9,1.68,12.96,15.42h0ZM192.54,417.99c-.12-11.46-1.92-12.84-5.7-13.32v13.32h5.7Z"/>
  <path class="st0" d="M227.76,403.59c0,9.72-4.68,16.32-12.06,16.32-6.84,0-12-6.6-12-16.38s5.16-15.42,12-15.42,12.06,6.06,12.06,15.48ZM212.4,416.31c.72,1.26,1.8,2.58,3.3,2.58,1.74,0,2.94-1.32,3.54-2.58.54-1.32.84-4.5.84-12.72s-.3-10.8-.84-12.06c-.6-1.2-1.8-2.4-3.54-2.4-2.04,0-3.24,1.2-3.72,2.4-.42,1.26-.66,4.08-.66,11.88,0,8.34.36,11.58,1.08,12.9Z"/>
  <path class="st0" d="M240.54,419.01h-7.38c.18-7.32,1.44-14.64,8.88-16.62-5.04-.66-8.7-2.64-8.82-6.9-.12-4.68,3.12-7.38,9.78-7.38,5.04,0,10.44,4.02,10.44,14.7v7.8c0,2.76.18,5.58.36,8.34h-7.74c.18-2.76.36-5.58.36-8.34v-7.98c-3.6,1.8-6.3,5.46-5.88,16.38h0ZM246.42,401.85v-5.76c0-4.68-1.62-7.08-3.42-7.08-2.28,0-3.66,1.56-3.54,5.88.12,4.68,4.14,6.96,6.96,6.96h0Z"/>
  <path class="st0" d="M270.3,392.61c-1.92-2.58-3.54-2.58-4.44-2.58h-.48v20.64c0,2.76.18,5.58.36,8.34h-7.74c.18-2.76.36-5.58.36-8.34v-13.32c0-2.76-.18-5.58-.36-8.34h16.98v1.02l-1.32,10.92h-.6c-.9-3.54-1.32-6.36-2.76-8.34h0Z"/>
  <path class="st0" d="M290.76,419.01h-9.06c.3-2.76.24-4.2-.18-6.42l-2.28-11.76c-.06-.24-.06-.48-.12-.72l-1.2-6.18c-.36-1.38-.78-2.94-1.44-4.92h8.1c.24,3.42,1.38,9.3,1.62,10.74l2.52,13.5.54,2.58c.3,1.38.78,1.68,1.5,1.74,0-10.2,1.02-20.16,3.06-23.82,1.98-3.6,4.56-5.46,7.8-5.46l-2.58,10.2c-2.22-4.26-5.82-2.58-6.78,9.42-.6,7.44-.72,14.82,1.44,24.24h-2.04c-.66-3.6-.9-10.38-.9-13.14h0Z"/>
  <path class="st0" d="M319.37,424.29c0-3.6-2.1-5.28-6.24-5.28h-10.02v-.72l13.2-28.26h-3.06c-.9,0-2.52,0-4.44,2.58-1.44,1.98-1.86,4.8-2.76,8.34h-.6l-1.32-10.92v-1.02h19.62v.6l-13.26,28.38h.36c18.48.18,18.96,11.82,1.86,12.18v-.48c4.44-.18,6.66-1.92,6.66-5.4h0Z"/>
  <path class="st0" d="M347.33,419.01h-7.86l-5.16-25.56-3.6,16.92c-.96,4.38-.78,7.14,1.68,8.16v.48h-6.36v-.48c.96-.18,2.52-2.88,3.66-8.16l3.84-17.64c.36-1.68-.9-2.76-3.84-3.12v-.6h16.08v.6c-2.76.36-3.96,1.44-3.6,3.12l5.16,25.8v.48h0Z"/>
  <path class="st0" d="M351.83,389.01h7.98v22.56l5.82-17.7v-4.86h7.98c-.18,3-.36,6.06-.36,9v12c0,2.94.18,6,.36,9h-7.98v-21.9l-5.82,17.76v4.14h-7.98c.18-3,.36-6.06.36-9v-12c0-2.94-.18-6-.36-9h0Z"/>
  <path class="st0" d="M380.81,389.01h19.74v2.88c0,6.84-2.58,10.74-7.74,12.12,4.56,1.02,9.18,4.26,9.24,15h-21.24c.18-3,.36-6.06.36-9v-12c0-2.94-.18-6-.36-9ZM393.89,391.89v-1.86h-5.1v13.5c4.68-.6,5.1-4.5,5.1-11.64ZM394.49,417.99c-.12-11.46-1.92-12.84-5.7-13.32v13.32h5.7Z"/>
  <path class="st0" d="M407.45,389.01h7.98v22.56l5.82-17.7v-4.86h7.98c-.18,3-.36,6.06-.36,9v12c0,2.94.18,6,.36,9h-7.98v-21.9l-5.82,17.76v4.14h-7.98c.18-3,.36-6.06.36-9v-12c0-2.94-.18-6-.36-9h0Z"/>
  <path class="st0" d="M436.43,389.01h7.98v22.56l5.82-17.7v-4.86h7.98c-.18,3-.36,6.06-.36,9v12c0,2.94.18,6,.36,9h-7.98v-21.9l-5.82,17.76v4.14h-7.98c.18-3,.36-6.06.36-9v-12c0-2.94-.18-6-.36-9h0ZM444.05,383.49c0,3,1.44,3.42,3.18,3.42,1.62,0,3-.66,3-3.66h4.62c-1.14,3.48-4.32,4.68-7.62,4.68-3.54,0-6.78-.96-7.98-4.44h4.8Z"/>
  <path class="st0" d="M501.83,398.01v12c0,2.94.18,6,.36,9h-7.98v-28.98h-5.82v28.98h-7.98c.18-3,.36-6.06.36-9v-12c0-2.94-.18-6-.36-9h21.78c-.18,3-.36,6.06-.36,9Z"/>
  <path class="st0" d="M519.53,388.11c4.98,0,8.34,2.58,8.94,7.02h-6c0-4.32-1.08-6-2.94-6-2.52,0-4.26.42-4.26,14.22v.12h10.62v1.02h-10.62c.12,14.52,2.52,14.52,4.26,14.4,2.1-.12,2.94-2.1,2.94-7.02h6c-.6,5.64-3.96,7.92-8.94,8.04-6.96.18-11.94-5.58-11.94-16.56,0-9.06,4.92-15.24,11.94-15.24Z"/>
  <path class="st0" d="M544.01,388.11c4.98,0,8.34,2.58,8.94,7.02h-6c0-4.32-1.08-6-2.94-6-2.52,0-4.26.42-4.26,14.22,0,15.66,2.46,15.66,4.26,15.54,2.1-.12,2.94-2.1,2.94-7.02h6c-.6,5.64-3.96,7.92-8.94,8.04-6.96.18-11.94-5.58-11.94-16.56,0-9.06,4.92-15.24,11.94-15.24h0Z"/>
  <path class="st0" d="M25.02,461.01h7.74c-.18,2.76-.36,5.58-.36,8.34v13.32c0,2.76.18,5.58.36,8.34h-7.74c.18-2.76.36-5.58.36-8.34v-13.32c0-2.76-.18-5.58-.36-8.34h0ZM33.24,473.97c.78-9.12,5.52-13.86,12.12-13.86l-2.7,9.84h-.6c-.66-5.7-6.18-6.18-7.86,3.96,6.12.78,9.66,3.66,10.98,9.18.48,1.92.78,5.16,1.32,7.92h-8.46c.24-2.16.3-3.12.24-4.68-.3-4.44-1.68-9.96-4.92-11.7l-.24-.12s.12-.54.12-.54Z"/>
  <path class="st0" d="M72.66,475.59c0,9.72-4.68,16.32-12.06,16.32-6.84,0-12-6.6-12-16.38s5.16-15.42,12-15.42,12.06,6.06,12.06,15.48ZM57.3,488.31c.72,1.26,1.8,2.58,3.3,2.58,1.74,0,2.94-1.32,3.54-2.58.54-1.32.84-4.5.84-12.72s-.3-10.8-.84-12.06c-.6-1.2-1.8-2.4-3.54-2.4-2.04,0-3.24,1.2-3.72,2.4-.42,1.26-.66,4.08-.66,11.88,0,8.34.36,11.58,1.08,12.9h0Z"/>
  <path class="st0" d="M87.42,461.01h7.74c-.18,2.76-.36,5.58-.36,8.34v2.64c1.26-7.8,5.76-11.88,11.88-11.88l-2.7,9.84h-.6c-.66-5.7-6.18-6.18-7.86,3.96,6.12.78,9.66,3.66,10.98,9.18.48,1.92.78,5.16,1.32,7.92h-8.46c.24-2.16.3-3.12.24-4.68-.3-4.38-1.68-9.84-4.8-11.64v7.98c0,2.76.18,5.58.36,8.34h-7.74c.18-2.76.36-5.58.36-8.34v-7.98c-3.12,1.8-4.5,7.26-4.8,11.64-.06,1.56,0,2.52.24,4.68h-8.46c.54-2.76.84-6,1.32-7.92,1.32-5.52,4.86-8.4,10.98-9.18-1.68-10.14-7.2-9.66-7.86-3.96h-.6l-2.7-9.84c6.12,0,10.62,4.08,11.88,11.88v-2.64c0-2.76-.18-5.58-.36-8.34h0Z"/>
  <path class="st0" d="M119.7,462.03v13.26c2.34-.24,3.72-1.26,4.74-4.92h.6c-.36,2.4-.3,8.7,0,11.04h-.6c-1.02-3.6-2.4-4.62-4.74-4.86v13.44h.18c4.2,0,6.78-2.58,7.74-8.4h.6c.18,2.4.48,4.92,1.38,8.4v1.02h-17.88c.18-3,.36-6.06.36-9v-12c0-2.94-.18-6-.36-9h17.88v1.02c-.9,3.48-1.2,6-1.38,8.4h-.6c-.96-5.82-3.54-8.4-7.74-8.4h-.18Z"/>
  <path class="st0" d="M134.7,461.01h19.74v2.88c0,6.84-2.58,10.74-7.74,12.12,4.56,1.02,9.18,4.26,9.24,15h-21.24c.18-3,.36-6.06.36-9v-12c0-2.94-.18-6-.36-9ZM147.78,463.89v-1.86h-5.1v13.5c4.68-.6,5.1-4.5,5.1-11.64ZM148.38,489.99c-.12-11.46-1.92-12.84-5.7-13.32v13.32h5.7Z"/>
  <path class="st0" d="M161.34,461.01h7.98v12.3h5.82v-12.3h7.98c-.18,3-.36,6.06-.36,9v12c0,2.94.18,6,.36,9h-7.98v-16.68h-5.82v16.68h-7.98c.18-3,.36-6.06.36-9v-12c0-2.94-.18-6-.36-9Z"/>
  <path class="st0" d="M190.32,461.01h7.98v22.56l5.82-17.7v-4.86h7.98c-.18,3-.36,6.06-.36,9v12c0,2.94.18,6,.36,9h-7.98v-21.9l-5.82,17.76v4.14h-7.98c.18-3,.36-6.06.36-9v-12c0-2.94-.18-6-.36-9h0Z"/>
  <path class="st0" d="M219.3,461.01h7.74c-.18,2.76-.36,5.58-.36,8.34v13.32c0,2.76.18,5.58.36,8.34h-7.74c.18-2.76.36-5.58.36-8.34v-13.32c0-2.76-.18-5.58-.36-8.34h0ZM227.52,473.97c.78-9.12,5.52-13.86,12.12-13.86l-2.7,9.84h-.6c-.66-5.7-6.18-6.18-7.86,3.96,6.12.78,9.66,3.66,10.98,9.18.48,1.92.78,5.16,1.32,7.92h-8.46c.24-2.16.3-3.12.24-4.68-.3-4.44-1.68-9.96-4.92-11.7l-.24-.12.12-.54h0Z"/>
  <path class="st0" d="M34.38,533.01h7.74c-.18,2.76-.36,5.58-.36,8.34v2.64c1.26-7.8,5.76-11.88,11.88-11.88l-2.7,9.84h-.6c-.66-5.7-6.18-6.18-7.86,3.96,6.12.78,9.66,3.66,10.98,9.18.48,1.92.78,5.16,1.32,7.92h-8.46c.24-2.16.3-3.12.24-4.68-.3-4.38-1.68-9.84-4.8-11.64v7.98c0,2.76.18,5.58.36,8.34h-7.74c.18-2.76.36-5.58.36-8.34v-7.98c-3.12,1.8-4.5,7.26-4.8,11.64-.06,1.56,0,2.52.24,4.68h-8.46c.54-2.76.84-6,1.32-7.92,1.32-5.52,4.86-8.4,10.98-9.18-1.68-10.14-7.2-9.66-7.86-3.96h-.6l-2.7-9.84c6.12,0,10.62,4.08,11.88,11.88v-2.64c0-2.76-.18-5.58-.36-8.34Z"/>
  <path class="st0" d="M70.56,563.01h-9.06c.3-2.76.24-4.2-.18-6.42l-2.28-11.76c-.06-.24-.06-.48-.12-.72l-1.2-6.18c-.36-1.38-.78-2.94-1.44-4.92h8.1c.24,3.42,1.38,9.3,1.62,10.74l2.52,13.5.54,2.58c.3,1.38.78,1.68,1.5,1.74,0-10.2,1.02-20.16,3.06-23.82,1.98-3.6,4.56-5.46,7.8-5.46l-2.58,10.2c-2.22-4.26-5.82-2.58-6.78,9.42-.6,7.44-.72,14.82,1.44,24.24h-2.04c-.66-3.6-.9-10.38-.9-13.14Z"/>
  <path class="st0" d="M82.32,561.99h4.98l4.26-24.54c.36-1.92-.42-3.06-3-3.84v-.6h14.34v.6c-2.58.78-3.6,1.92-3.36,3.84l3.18,24.54h4.8v1.02l-5.28,12.48h-.6l-.06-12.48h-13.62v12.54h-.6l-5.04-12.54s0-1.02,0-1.02ZM93.06,537.45h-.48l-4.26,24.54h7.5s-2.76-24.54-2.76-24.54Z"/>
  <path class="st0" d="M111.72,533.01h7.74c-.18,2.76-.36,5.58-.36,8.34v13.32c0,2.76.18,5.58.36,8.34h-7.74c.18-2.76.36-5.58.36-8.34v-13.32c0-2.76-.18-5.58-.36-8.34ZM119.94,545.97c.78-9.12,5.52-13.86,12.12-13.86l-2.7,9.84h-.6c-.66-5.7-6.18-6.18-7.86,3.96,6.12.78,9.66,3.66,10.98,9.18.48,1.92.78,5.16,1.32,7.92h-8.46c.24-2.16.3-3.12.24-4.68-.3-4.44-1.68-9.96-4.92-11.7l-.24-.12.12-.54h0Z"/>
  <path class="st0" d="M137.1,533.01h7.98v22.56l5.82-17.7v-4.86h7.98c-.18,3-.36,6.06-.36,9v12c0,2.94.18,6,.36,9h-7.98v-21.9l-5.82,17.76v4.14h-7.98c.18-3,.36-6.06.36-9v-12c0-2.94-.18-6-.36-9Z"/>
  <path class="st0" d="M166.08,533.01h7.98v22.56l5.82-17.7v-4.86h7.98c-.18,3-.36,6.06-.36,9v12c0,2.94.18,6,.36,9h-7.98v-21.9l-5.82,17.76v4.14h-7.98c.18-3,.36-6.06.36-9v-12c0-2.94-.18-6-.36-9ZM173.7,527.49c0,3,1.44,3.42,3.18,3.42,1.62,0,3-.66,3-3.66h4.62c-1.14,3.48-4.32,4.68-7.62,4.68-3.54,0-6.78-.96-7.98-4.44h4.8Z"/>
</svg>